<svg width="22" height="26" viewBox="0 0 22 26" fill="none" xmlns="http://www.w3.org/2000/svg">
<rect width="21.5" height="26" rx="6" fill="black"/>
<g clip-path="url(#clip0_8_1566)">
<path d="M6.25 4C5.00898 4 4 5.00898 4 6.25V19.75C4 20.991 5.00898 22 6.25 22H15.25C16.491 22 17.5 20.991 17.5 19.75V9.625H13C12.3777 9.625 11.875 9.12227 11.875 8.5V4H6.25ZM13 4V8.5H17.5L13 4ZM6.8125 6.25H9.0625C9.37187 6.25 9.625 6.50312 9.625 6.8125C9.625 7.12188 9.37187 7.375 9.0625 7.375H6.8125C6.50312 7.375 6.25 7.12188 6.25 6.8125C6.25 6.50312 6.50312 6.25 6.8125 6.25ZM6.8125 8.5H9.0625C9.37187 8.5 9.625 8.75313 9.625 9.0625C9.625 9.37187 9.37187 9.625 9.0625 9.625H6.8125C6.50312 9.625 6.25 9.37187 6.25 9.0625C6.25 8.75313 6.50312 8.5 6.8125 8.5ZM7.375 11.875H14.125C14.7473 11.875 15.25 12.3777 15.25 13V15.25C15.25 15.8723 14.7473 16.375 14.125 16.375H7.375C6.75273 16.375 6.25 15.8723 6.25 15.25V13C6.25 12.3777 6.75273 11.875 7.375 11.875ZM7.375 13V15.25H14.125V13H7.375ZM12.4375 18.625H14.6875C14.9969 18.625 15.25 18.8781 15.25 19.1875C15.25 19.4969 14.9969 19.75 14.6875 19.75H12.4375C12.1281 19.75 11.875 19.4969 11.875 19.1875C11.875 18.8781 12.1281 18.625 12.4375 18.625Z" fill="white"/>
</g>
<defs>
<clipPath id="clip0_8_1566">
<path d="M4 4H17.5V22H4V4Z" fill="white"/>
</clipPath>
</defs>
</svg>
