<svg width="329" height="329" viewBox="0 0 329 329" fill="none" xmlns="http://www.w3.org/2000/svg">
<path d="M304.104 293.64C302.752 291.473 301.529 289.307 301.079 286.676C300.886 285.902 301.014 285.051 301.529 284.509C302.109 283.967 302.752 284.277 303.332 284.586C303.782 284.896 304.168 285.438 304.748 285.283C304.49 283.813 303.911 282.497 303.139 281.336C301.594 279.015 298.955 278.318 296.702 279.711C295.092 280.64 293.483 281.568 291.938 282.652C289.364 284.354 287.111 283.503 284.922 281.568C282.927 279.789 281.639 277.312 280.416 274.759C279.644 273.211 279 271.509 278.55 269.806C279.966 269.574 281.382 269.652 282.798 270.116C282.605 268.723 281.382 268.646 280.867 267.794C280.481 267.175 280.159 266.634 280.416 265.86C280.674 265.086 281.189 265.086 281.768 265.086C282.605 265.009 283.442 265.318 284.15 266.015C284.536 266.402 284.858 267.175 285.63 266.789L285.437 266.092C283.506 262.61 280.738 260.753 277.391 259.979C276.039 259.669 275.91 259.592 275.717 257.967C275.524 256.187 275.202 254.407 275.138 252.628C275.009 250.229 274.687 247.907 274.945 245.508C275.009 245.354 275.138 245.122 275.009 244.967C273.657 243.11 273.722 240.866 273.464 238.621C273.207 236.377 273.529 234.211 273.593 232.044C273.786 226.395 274.366 220.824 275.331 215.329C276.232 210.3 278.356 205.811 279.773 200.936C280.223 199.776 280.094 198.383 279.515 197.299C278.163 194.746 277.005 192.037 275.717 189.406C275.331 188.633 275.138 187.395 274.237 187.704C273.529 187.936 273.786 189.174 273.657 189.948C273.593 190.412 273.657 191.032 273.142 191.264C272.628 191.496 272.241 190.954 271.919 190.567C271.405 189.871 270.954 189.174 270.568 188.401C268.83 184.841 267.349 181.049 266.191 177.18C265.869 176.097 265.547 175.013 264.26 175.787C259.239 179.037 253.703 180.74 248.36 182.752C241.537 185.228 234.457 186.543 227.376 186.698C226.217 186.775 225.059 186.002 223.9 186.466C223.964 187.162 224.093 187.859 224.415 188.478C225.896 192.347 227.44 196.216 229.05 200.008C232.461 208.056 236.13 215.871 239.091 224.151C240.314 227.556 241.537 230.883 242.825 234.288C244.627 238.776 246.043 243.497 246.944 248.294C247.459 250.925 247.652 253.634 247.395 256.342C246.622 262.378 241.923 266.479 236.967 265.55C236.838 265.55 236.71 265.473 236.516 265.473C234.778 264.931 233.105 264.312 231.431 263.538C229.565 262.687 227.569 262.378 225.574 262.61C223.385 262.842 221.39 263.693 220.102 265.86C218.171 268.955 217.077 272.747 217.013 276.693C217.849 276.539 217.914 275.687 218.236 274.991C219.137 272.902 220.167 270.967 221.39 269.187C221.905 268.336 222.548 267.64 223.321 267.175C224.673 266.479 225.574 267.098 225.638 268.878C225.702 270.425 225.252 271.973 224.415 273.211C223.449 274.759 222.42 276.229 221.261 277.622C220.746 278.164 220.102 278.705 220.102 279.634C223.578 279.866 227.119 279.634 230.53 279.015C233.427 278.551 236.388 277.932 239.284 277.312C241.151 276.926 243.018 277.003 244.884 276.461C248.875 275.223 252.995 274.372 257.115 273.985C260.14 273.676 263.23 273.289 266.255 272.824C267.349 272.67 267.607 272.979 267.349 274.372C266.834 277.235 265.547 279.866 263.68 281.723C262.2 283.271 262.2 283.348 260.848 281.646C259.046 279.324 256.278 278.396 253.767 279.324C248.875 281.027 245.528 286.598 245.786 292.789C246.751 292.634 246.944 291.551 247.395 290.777C248.36 288.92 249.519 287.372 250.935 286.057C251.772 285.36 252.609 285.051 253.446 285.747C254.282 286.444 254.089 287.759 253.767 288.765C253.381 289.926 252.737 290.932 251.901 291.628C251.193 292.325 250.356 292.866 249.712 293.64C249.197 294.259 248.296 294.646 248.296 295.807C250.935 296.271 253.639 296.426 256.278 296.968C258.724 297.587 261.234 296.735 263.037 294.723C264.066 293.64 264.517 292.247 265.161 290.932C265.933 291.086 266.641 291.473 267.285 292.015C268.637 293.021 269.795 294.182 269.988 296.271C270.117 297.741 270.954 298.979 271.662 300.218C272.692 302.229 274.623 303.39 276.554 303.235C276.812 302.849 276.618 302.462 276.49 302.152C275.782 300.295 275.331 298.206 275.267 296.194C275.009 293.795 275.46 291.396 276.554 289.307C277.326 287.914 278.292 287.991 278.743 289.384C279.644 292.17 280.03 295.11 279.901 298.128C279.773 299.676 279 301.146 279.386 302.771C282.219 302.152 283.828 300.527 284.278 297.509C284.343 296.658 284.407 295.807 284.343 294.956C284.407 293.872 284.536 293.717 285.437 293.95C288.141 294.414 290.844 295.265 293.419 296.426C295.672 297.587 298.053 298.128 300.499 297.973C302.237 297.819 304.104 297.819 305.263 295.729C305.327 295.033 304.619 294.414 304.104 293.64ZM265.032 240.479C262.264 239.55 259.496 238.389 256.664 237.77C256.471 234.211 256.6 230.574 256.921 227.014C256.921 226.55 257.115 226.163 257.501 225.931C258.531 226.24 258.659 228.252 260.011 227.865C260.14 227.865 260.269 227.865 260.333 227.943C262.007 230.419 263.616 232.973 264.388 236.068C264.517 237.538 265.096 238.931 265.032 240.479Z" fill="#38A1FC"/>
<path d="M300.564 253.788C303.01 254.64 305.585 255.181 308.159 255.336C316.656 255.723 322.9 260.598 326.698 269.729C327.406 271.431 327.921 273.289 328.178 275.223C328.178 275.455 328.307 275.687 328.5 275.92V296.194C327.856 296.89 328.178 297.896 327.985 298.747C326.311 305.634 322.642 311.593 317.686 315.617C312.215 320.337 306.035 323.664 299.47 325.521C296.38 326.373 293.29 326.914 290.136 327.379C284.278 328.307 278.356 328.617 272.434 328.462C270.182 328.385 267.929 328.23 265.676 327.843C264.388 327.611 263.037 327.611 261.685 327.456C258.08 326.992 254.475 326.218 250.871 325.521C246.172 324.67 241.602 323.432 237.031 321.885C231.946 320.259 226.99 317.938 222.355 314.998C221.197 314.378 219.974 313.837 218.686 313.527C212.7 311.361 206.649 309.194 200.598 307.027C197.895 306.021 195.127 305.17 192.295 304.551C190.686 304.241 189.076 304.241 187.467 304.087C180.966 303.545 174.465 303.7 167.899 303.622H162.878C160.496 303.622 158.179 303.855 155.862 304.319C153.609 304.706 151.292 304.86 148.974 305.17C146.657 305.48 144.404 305.866 142.151 306.253C140.091 306.563 138.032 306.795 135.907 307.105L128.891 308.188C126.767 308.497 124.643 308.807 122.519 309.039C119.944 309.426 117.434 309.813 114.859 310.122C113.507 310.277 112.155 310.432 110.868 310.509C108.679 310.587 106.491 310.896 104.302 311.051C102.564 311.128 100.762 311.283 99.0239 311.67C97.7365 311.902 96.4492 312.057 95.1618 312.057C93.2307 312.212 91.2996 312.444 89.3685 312.599C87.18 312.831 84.9271 312.676 82.8029 313.218C82.6098 313.295 82.3523 313.295 82.1592 313.295C77.9108 313.14 73.6625 314.069 69.4141 313.605C66.3887 313.295 63.299 313.372 60.2737 312.986C56.9908 312.599 53.7724 312.212 50.5539 311.67C46.3056 310.974 42.1216 309.89 38.0019 308.42C33.5605 307.027 29.2477 305.247 24.9994 303.235C20.1717 300.914 15.6658 297.587 11.8037 293.408C9.61513 291.009 7.61969 288.378 5.88172 285.515C2.92074 280.717 1.18277 275.146 0.667816 269.342C0.024124 262.765 1.24714 256.187 4.07938 250.538C6.01046 246.592 8.52086 243.187 11.5462 240.479C12.3186 241.717 12.1899 243.187 12.3186 244.58C13.1554 252.473 15.2152 259.747 19.5924 265.86C23.9695 271.818 29.5052 276.384 35.749 279.015C44.3101 282.729 53.3862 284.277 62.4622 283.503C68.2554 283.116 74.0487 281.801 79.5844 279.479C84.8627 277.312 89.6904 273.908 93.8744 269.42C94.9687 268.104 95.9986 266.634 96.8354 265.086C97.4791 264.003 98.1871 263.616 99.0239 264.854C103.465 271.509 109.709 274.759 116.082 277.622C122.261 280.253 128.569 282.11 135.071 283.116C147.816 285.283 159.145 281.414 169.122 271.818C176.074 265.086 180.322 256.187 182.382 245.818C182.704 244.038 183.09 242.258 183.348 240.479C183.412 239.86 183.348 239.086 184.056 238.931C184.12 239.473 184.506 239.86 184.957 239.782C187.274 239.627 189.591 240.092 191.844 239.473C192.295 239.395 192.681 239.395 193.132 239.395C195.32 239.318 197.509 239.086 199.697 238.699C202.143 238.312 204.589 238.157 207.035 237.848C209.224 237.538 211.412 237.151 213.537 236.919C215.854 236.61 218.236 236.223 220.553 235.913C222.42 235.681 224.286 235.836 226.153 235.294C226.282 235.217 226.475 235.217 226.604 235.217C230.916 235.139 235.165 234.598 239.477 234.83C240.121 234.83 240.765 235.139 241.409 235.217C241.923 235.217 242.567 235.449 242.696 234.52C243.468 234.52 243.533 235.371 243.726 235.99C245.721 241.717 247.395 247.52 247.781 253.866C248.232 261.449 242.374 267.872 236.195 266.247C234.264 265.705 232.397 264.777 230.466 264.08C228.148 263.152 225.638 263.152 223.321 264.003C221.583 264.622 220.167 266.092 219.33 267.949C218.107 270.658 217.399 273.598 217.141 276.616C217.013 278.318 216.433 280.021 216.369 281.723C216.369 282.11 216.24 282.574 216.562 282.807C216.884 283.039 217.141 282.574 217.334 282.342C218.236 281.336 218.879 280.021 220.167 279.557C226.668 279.557 232.976 278.009 239.413 277.003C243.919 276.306 248.296 274.759 252.802 274.217C257.179 273.675 261.556 273.211 265.998 272.592C267.221 272.437 267.8 273.056 267.542 274.527C267.027 278.009 265.354 281.104 262.972 283.116C262.328 283.735 261.363 283.658 260.848 282.884L260.784 282.807C258.724 280.098 256.278 279.015 253.381 280.176C250.291 281.336 247.845 284.199 246.816 287.914C246.301 289.461 246.043 291.164 246.043 292.866C245.979 294.182 245.399 295.342 245.206 296.581C245.078 297.2 245.013 297.973 245.593 298.283C246.172 298.593 246.236 297.819 246.558 297.509C247.009 296.813 247.652 296.271 248.36 295.962C250.806 296.039 253.188 296.348 255.57 296.813C259.432 297.587 262.522 296.503 264.453 292.092C264.646 291.319 265.418 290.854 266.062 291.164C266.191 291.241 266.255 291.241 266.319 291.319C268.25 292.479 269.86 293.717 270.503 296.581C271.276 300.218 273.078 303.003 276.554 303.39C277.648 304.474 278.678 304.396 279.515 303.003C282.605 302.075 284.085 299.676 284.15 295.884C284.15 294.259 284.665 293.872 286.016 294.104C288.655 294.569 291.295 295.42 293.805 296.658C295.607 297.509 297.538 298.051 299.47 298.128C301.465 298.36 303.46 297.664 305.07 296.194C306.164 295.962 306.614 297.122 307.258 297.819C307.58 298.283 307.902 298.67 308.159 299.212C308.417 299.598 308.739 300.063 309.254 299.753C309.64 299.521 309.64 299.057 309.704 298.593C309.769 296.348 309.318 294.027 308.417 292.092C307.709 290.467 306.808 288.997 305.778 287.682C305.263 287.063 304.812 286.289 304.555 285.438C304.233 284.432 303.847 283.426 303.332 282.497C302.044 279.943 299.341 279.015 297.088 280.33C295.414 281.259 293.805 282.265 292.196 283.271C289.75 284.896 287.561 284.199 285.373 282.497C283.635 281.027 282.219 279.17 281.189 276.926C280.352 275.223 279.579 273.443 278.871 271.586C278.228 269.961 278.55 269.419 280.094 269.342C280.996 269.342 281.897 269.497 282.798 269.806C284.536 270.58 286.081 271.896 287.754 272.979C288.076 273.211 288.398 273.598 288.72 273.134C289.042 272.67 288.784 272.283 288.591 271.896C287.754 270.116 286.274 268.878 285.437 267.098C283.828 263.693 281.06 261.449 277.841 260.907C276.232 260.598 275.589 259.669 275.331 257.812C274.88 254.33 274.752 250.848 274.494 247.366C274.43 246.824 274.494 246.282 274.752 245.895C274.88 245.741 275.009 245.663 275.202 245.663C275.395 245.663 275.524 245.741 275.653 245.818C279.386 249.068 283.055 252.473 287.239 254.872C290.007 256.497 292.904 257.735 295.865 258.586C296.895 258.896 297.86 259.205 298.568 257.812C298.826 257.271 299.276 257.425 299.727 257.425C301.079 257.503 301.207 257.271 300.821 255.645C300.564 254.872 300.242 254.33 300.564 253.788Z" fill="#E1F0FF"/>
<path d="M184.056 238.854C183.541 242.181 182.897 245.586 182.125 248.836C180.065 257.193 176.203 264.777 170.86 270.735C167.127 274.914 162.685 277.622 158.115 280.176C152.064 283.58 145.756 284.432 139.19 283.967C129.792 283.271 120.588 280.717 111.962 276.306C107.907 274.295 103.916 271.818 100.762 268.027C99.7963 266.866 98.8952 265.628 98.0584 264.235C97.8653 264.39 97.7365 264.39 97.6722 264.544C94.7112 270.271 90.2053 273.753 85.5064 277.003C81.1937 279.866 76.5591 281.336 71.7958 282.497C65.8738 284.045 59.8231 284.586 53.8368 284.122C44.632 283.271 35.8134 280.872 27.896 274.991C18.2406 267.872 13.0911 257.503 11.9324 244.038C11.8681 242.877 11.7393 241.717 11.6106 240.556C11.5462 236.764 11.7393 233.05 12.1899 229.336C12.9623 223.919 14.1853 218.58 15.7302 213.395C17.9831 206.276 20.751 199.466 24.0338 193.043C26.4799 187.781 28.1535 182.055 28.9259 176.097C29.1834 174.781 28.7971 173.388 27.896 172.537C25.9649 170.525 23.7764 168.745 21.7165 166.888C19.5924 164.954 17.5969 162.864 15.7946 160.62C14.9578 159.614 14.2497 158.454 13.8635 157.061C13.2198 155.126 13.606 152.96 14.829 151.489C15.6015 150.561 16.4383 149.787 17.4038 149.168C21.8453 146.459 26.673 144.912 31.6938 144.68C32.4662 144.68 33.1743 144.757 33.9467 144.912C36.4571 145.453 37.6801 147.775 37.1651 150.793C36.972 151.876 36.6502 152.882 36.3283 153.965C35.4915 157.138 36.1352 158.144 38.9031 158.067C41.2204 157.989 43.5377 157.448 45.6619 156.442C48.6229 155.126 51.4551 153.579 54.1586 151.721C55.0598 151.18 55.8966 150.406 56.5403 149.4C57.3127 148.471 57.3771 147.001 56.669 145.995C56.3472 145.376 55.8966 144.912 55.5747 144.293C55.1241 143.674 55.1241 142.668 55.7035 142.126C55.8322 142.049 55.8966 141.971 56.0253 141.894C56.669 141.507 57.4414 141.197 58.1495 141.12C59.7587 140.733 61.3036 140.346 62.9128 140.114C63.4921 140.037 64.0071 139.572 64.2646 138.876C66.5175 133.691 68.5129 128.429 70.5727 123.167C70.959 122.084 71.2808 121.001 71.4739 119.84C71.7958 118.06 71.2164 116.126 69.9291 115.12C66.5175 112.024 63.0415 109.084 59.63 106.066C57.892 104.518 56.2184 102.893 54.6736 101.114C53.923 100.281 53.3869 99.2064 53.1287 98.0183C52.6137 95.3099 53.1287 93.0659 55.1241 91.3634C56.0253 90.5896 57.0552 89.9706 58.1495 89.5063C62.7841 87.6491 67.5474 86.5658 72.3751 86.1789C73.3406 86.1015 74.3062 86.1789 75.2717 86.2562C77.074 86.4884 77.7821 87.6491 77.7821 89.8158C77.7177 90.8218 77.589 91.9051 77.2671 92.8337C77.0097 93.9171 76.6878 95.0778 76.5591 96.2385C76.2372 97.6314 76.9453 99.0243 78.1039 99.4112C78.2327 99.4112 78.3614 99.4886 78.4902 99.4886C79.8419 99.7981 81.1937 99.7207 82.5454 99.3338C87.7593 98.0183 92.7157 95.4647 97.2216 91.9051C97.6078 91.5956 97.994 91.2087 98.3802 90.8218C99.8607 89.4289 100.311 86.8753 99.4101 84.8634C98.2515 81.8455 98.4446 81.2264 101.212 80.53C106.233 79.2145 111.318 78.6728 116.468 78.7502C116.983 78.7502 117.562 78.8276 118.077 79.0597C119.622 79.6788 120.073 81.0716 119.236 82.6967C118.785 83.4705 118.335 84.1669 117.82 84.8634C117.434 85.3276 117.112 85.8693 116.79 86.3336C116.404 87.0301 116.532 87.417 117.24 87.417C119.043 87.4943 120.781 87.3396 122.583 87.1074C126.96 86.4884 131.273 85.2503 135.65 84.3991C136.551 84.2443 137.452 84.1669 138.418 84.2443C140.091 84.3991 140.864 85.7146 140.606 87.7265C140.349 88.9646 139.898 90.2027 139.319 91.2861C135.521 99.7207 131.402 107.923 127.475 116.28C127.153 116.9 126.896 117.519 126.638 118.138C125.93 119.763 125.866 121.697 126.51 123.4C127.346 125.953 128.569 128.352 130.114 130.519C132.432 133.614 134.942 136.4 137.452 139.263C137.839 139.65 138.289 139.805 138.74 139.65C143.374 139.418 148.009 138.799 152.643 139.031C153.287 139.031 153.931 139.186 154.575 139.418C156.441 140.037 157.085 141.971 156.055 143.983C155.733 144.525 155.411 145.067 155.089 145.531C154.768 145.995 154.317 146.382 154.317 147.233C155.218 147.852 156.184 147.543 157.149 147.465C162.17 147.156 167.062 145.995 172.019 144.989C172.791 144.834 173.499 144.757 174.271 144.757C175.559 144.757 175.945 145.376 176.009 146.924C176.009 147.93 175.752 149.013 175.366 149.864C171.697 157.835 168.607 166.114 164.745 173.853C163.651 175.865 163.586 178.341 164.487 180.43C165.582 183.525 166.998 186.466 168.671 189.174C170.731 192.502 172.791 195.829 174.98 199.002C180.322 206.895 182.961 216.026 184.12 226.008C184.249 230.342 184.313 234.598 184.056 238.854Z" fill="#1E2319"/>
<path d="M223.514 82.5419C224.479 79.9109 225.381 77.2799 226.346 74.6489C226.539 74.0299 226.99 73.4108 226.668 72.637C226.797 71.7084 227.44 71.8632 227.955 71.7858C230.852 70.9346 233.877 70.3929 236.774 69.3869C237.868 69 239.091 69.3869 239.864 70.4703C241.087 71.9406 242.117 73.643 242.953 75.4227C243.275 76.1966 243.726 76.9704 244.112 77.7442C246.043 80.8395 248.425 81.4585 251.193 79.6014C253.188 78.3633 254.926 76.5061 256.149 74.1846C258.981 68.6131 261.492 62.9642 262.972 56.6189C263.552 54.1427 263.938 51.5891 263.938 48.9581C263.938 46.6366 264.324 46.1723 266.255 45.8628L270.697 44.9342C269.538 44.3925 268.444 44.7021 267.285 45.0116C264.066 45.7854 260.719 45.7854 257.501 45.089C256.986 45.0116 256.278 45.0116 256.213 44.2378C256.149 43.464 256.728 43.3092 257.115 43.0771C258.08 42.3806 258.981 41.452 259.689 40.4461C260.269 39.4401 261.299 39.0532 262.264 39.2853C263.101 39.4401 264.002 39.4401 264.839 39.2853C265.354 39.2853 265.74 38.821 265.869 38.2794C265.998 37.6603 265.676 37.1186 265.161 36.9639H265.096C263.101 36.4222 262.329 34.4876 261.556 32.5531C260.719 30.3864 259.239 28.6066 257.372 27.6006C255.699 26.5947 253.767 26.5173 252.029 27.4459C250.292 28.4519 248.682 29.8447 247.395 31.5471C246.494 32.7079 246.429 34.2555 246.429 35.7258C246.429 36.3448 246.558 37.0413 246.558 37.6603C246.558 37.9698 246.494 38.2794 246.365 38.5115C246.301 38.6663 246.108 38.821 245.914 38.821C245.657 38.821 245.399 38.6663 245.206 38.5115C242.953 35.8805 240.25 35.6484 237.418 36.577C237.16 36.4996 236.967 36.2674 236.838 36.0353C236.581 35.1067 236.388 34.1781 236.259 33.2495C235.937 31.4697 235.229 30.1543 233.491 30.2316C233.169 30.2316 232.847 30.1543 232.59 29.8447C232.783 28.7614 233.556 28.0649 233.877 27.059C233.877 26.7494 233.684 26.3625 234.006 26.1304C235.358 25.047 236.967 24.8149 238.576 24.5054C240.057 24.1958 240.186 23.5768 239.542 21.9518C239.156 21.1006 238.254 20.5589 238.319 19.3982C238.834 19.2434 239.091 18.7791 239.477 18.3922C242.438 15.3743 245.979 13.3624 249.777 12.4338C251.257 12.2016 252.738 12.1242 254.282 12.3564C254.154 13.5945 253.188 13.8266 252.609 14.5231C252.416 14.8326 252.094 15.0648 252.158 15.5291C252.223 15.9933 252.609 15.9933 252.931 16.0707C258.273 16.9993 262.715 20.172 266.641 24.5054C268.122 26.1304 268.83 25.8209 269.28 23.4994C269.988 19.9398 268.508 17.3088 266.77 14.7552C266.319 14.1362 265.418 13.904 265.547 12.7433C269.023 12.0469 272.499 11.7373 275.91 13.285C276.49 13.5171 277.069 13.6719 277.648 13.8266C277.97 14.9874 277.327 15.7612 276.94 16.6124C276.361 17.7731 275.975 19.0886 275.524 20.3267C275.202 21.1006 275.331 21.5648 276.168 21.4875C277.455 22.1065 277.97 23.8089 279.129 24.5827C279.837 25.5113 280.545 25.2018 281.317 24.7375C283.313 23.5768 285.373 22.4934 287.111 20.791C287.626 20.3267 288.076 19.5529 288.913 20.172C288.72 21.0232 289.364 21.3327 289.685 21.7196C291.488 23.8089 293.097 26.2078 294.513 28.7614C295.994 31.3924 297.024 34.3329 297.603 37.4282C297.796 38.3567 298.182 39.5949 297.281 40.0592C296.38 40.5234 295.994 39.2853 295.414 38.6663C295.092 38.2794 294.835 37.8925 294.577 37.5055C294.191 37.2734 293.998 37.4282 294.191 37.9698C294.577 39.208 294.964 40.5234 295.286 41.7616C295.414 42.3806 295.543 42.9997 295.543 43.6187C295.607 44.1604 295.607 44.7021 295.092 44.9342C294.577 45.1664 294.32 44.7795 294.063 44.3152C293.741 43.6961 293.354 43.0771 292.968 42.458C292.582 41.9163 292.131 41.452 291.681 40.9877C291.359 40.9104 291.102 40.9877 291.23 41.5294C291.552 42.9997 291.938 44.4699 292.196 46.0176C292.84 49.5771 292.582 53.2915 291.488 56.6189C289.364 63.8928 287.497 71.2441 286.016 78.6728C285.952 79.1371 285.823 79.6788 285.373 79.9883C284.536 79.9883 283.699 80.2204 282.927 80.6847C278.421 82.9288 273.786 84.5538 268.959 85.405C264.839 86.1789 260.784 87.1074 256.664 87.5717C252.931 88.036 249.197 88.2682 245.399 88.8098C244.241 89.1194 243.082 88.1908 242.825 86.7979C242.503 85.4824 241.859 85.2503 241.087 86.2562C238.319 89.8932 235.165 89.8158 231.689 87.8813C229.372 86.5658 226.797 85.8693 224.608 84.1669C224.222 83.6252 223.578 83.4705 223.514 82.5419Z" fill="#38A1FC"/>
<path d="M201.95 179.037C202.143 180.275 201.886 180.662 201.049 180.508C200.084 180.353 199.182 180.043 198.217 179.734C192.488 177.567 187.338 173.621 183.219 168.359C181.867 166.734 181.545 164.799 181.738 162.478C182.06 158.841 182.704 155.204 183.669 151.721C184.12 149.942 184.056 147.93 183.476 146.227C183.026 144.757 182.704 143.287 182.446 141.739C181.996 138.876 182.511 135.858 183.798 133.382C184.828 131.447 185.987 129.668 187.338 128.12C189.398 125.566 191.458 123.013 193.582 120.536C198.217 115.274 201.95 109.084 205.748 102.893C209.288 97.0897 212.764 91.2861 215.597 84.8634C215.597 84.786 215.661 84.786 215.661 84.7086C216.176 83.7026 216.691 82.6967 217.914 82.9288C219.008 83.3157 219.716 84.4764 219.716 85.8693C219.781 87.7265 219.845 89.5837 220.102 91.5182C220.167 91.9825 220.231 92.3694 220.295 92.8337C220.553 94.7683 219.845 96.548 219.459 98.4052C219.33 98.7147 219.201 99.1017 219.072 99.4112C218.944 99.7981 218.879 100.262 218.879 100.649C218.686 102.739 217.785 104.364 216.948 106.376C222.227 102.584 227.698 99.4886 232.139 94.5361C232.654 93.9944 233.105 93.3754 233.62 92.9111C234.65 92.292 235.165 91.0539 236.066 90.2801C237.74 90.4349 238.834 89.042 240.057 88.036C241.988 86.3336 241.988 86.3336 242.953 88.8872C243.147 89.4289 243.533 89.8158 243.726 90.3575C243.919 91.673 243.983 93.0659 243.855 94.4587C243.79 95.0778 243.597 95.6968 243.533 96.2385C242.052 100.804 240.636 105.447 237.933 109.316C237.096 109.858 236.838 110.941 236.259 111.715C235.165 112.257 234.585 113.804 233.298 114.036C232.139 113.959 232.075 115.584 231.238 116.048C225.767 119.298 220.553 123.013 214.631 125.025C211.284 126.185 207.872 127.269 204.782 129.126C205.04 129.126 205.169 128.894 205.362 128.894C207.808 127.81 210.125 126.572 212.636 125.721C214.245 125.179 215.403 125.798 215.661 127.733C216.24 131.834 216.82 135.935 216.047 140.037C215.532 142.822 214.438 144.061 211.927 144.293C211.155 143.364 210.125 142.9 209.031 143.132C206.263 143.442 203.559 142.59 200.792 142.823C199.89 142.9 198.41 142.436 198.346 143.828C198.281 144.834 199.826 144.834 200.663 145.067C202.98 145.686 205.362 145.995 207.743 145.918C208.773 145.84 209.224 146.459 209.288 147.62C209.353 151.876 209.095 156.132 208.58 160.388C208.452 161.394 207.872 161.936 207.229 162.478C204.911 164.412 202.272 164.567 199.633 164.644C197.38 164.722 195.127 165.031 192.874 165.495C193.84 165.65 194.805 165.65 195.706 165.418C198.346 165.109 200.985 165.186 203.559 164.644C204.01 164.567 204.525 164.412 204.976 164.257C208.13 163.097 209.16 161.472 209.288 157.525C209.224 156.132 209.353 154.662 209.739 153.346C210.19 151.721 209.868 150.096 209.996 148.471C210.061 147.698 209.868 146.769 210.447 146.15C211.348 145.995 211.348 146.846 211.477 147.543C213.279 157.757 216.433 167.43 219.845 176.948C220.102 177.567 220.553 178.186 220.102 178.96C216.369 178.883 212.7 178.341 209.224 176.561C208.709 176.252 208.13 176.484 207.679 176.019C207.615 176.097 207.55 175.787 207.486 175.942C207.422 176.097 207.422 175.787 207.615 176.019C208.001 176.252 208.452 176.406 208.58 176.948C209.481 177.722 210.511 178.418 211.541 178.883C211.992 179.115 212.507 179.347 212.442 180.043C212.378 180.74 211.734 180.894 211.155 180.894C209.095 180.817 207.1 180.43 205.169 179.734C204.268 179.424 203.431 179.115 202.53 178.805C201.95 178.65 201.435 178.496 200.92 178.263C200.792 178.186 200.727 178.031 200.598 178.109L200.985 178.341C201.242 178.186 201.693 178.496 201.95 179.037Z" fill="#38A1FC"/>
<path d="M243.018 96.1611C243.018 95.6195 243.147 95.0778 243.34 94.5361C244.37 93.7623 245.528 93.8397 246.623 93.6849C254.218 92.6789 261.878 92.292 269.474 90.9765C272.885 90.4349 276.297 89.5837 279.58 88.5003C282.798 87.4943 283.055 87.1074 283.377 83.1609C283.249 82.9288 283.957 82.0002 282.991 82.3871C278.678 84.4764 274.237 85.9467 269.667 86.8753C262.135 88.5003 254.54 89.5837 246.944 90.048C245.721 90.1253 244.498 90.8991 243.34 89.8932C242.825 89.8158 242.439 89.3515 242.374 88.7325C242.31 88.036 242.117 87.417 241.859 86.7979C240.701 87.8039 239.542 88.6551 238.448 89.661C237.74 90.3575 236.774 90.667 235.937 90.3575C235.036 90.8218 234.264 90.3575 233.427 90.048C230.852 89.042 228.406 87.8039 225.96 86.411C225.381 86.1015 224.673 85.0955 224.158 86.1015C223.578 87.2622 224.608 87.7265 225.316 88.1908C227.634 89.7384 230.015 91.0539 232.461 92.2146C232.912 92.3694 233.427 92.4468 233.62 93.1432C233.298 93.7623 232.912 94.2266 232.397 94.5361C231.882 94.6909 231.303 94.6135 230.788 94.304C228.535 93.2206 226.346 91.9825 224.286 90.5122C222.935 89.5063 222.935 89.5063 222.42 91.4408C221.905 93.4528 221.261 95.4647 220.424 97.3992C220.167 98.0183 219.974 98.7147 219.33 99.0243C219.073 99.0243 218.879 98.8695 219.008 98.4826C219.394 96.6254 219.781 94.6909 220.167 92.8337C221.068 90.0479 221.583 87.1074 222.613 84.4764C222.87 83.8574 222.935 83.0836 223.45 82.6193C227.312 85.6372 231.624 87.417 236.066 88.7325C236.71 88.9646 237.482 88.7325 237.997 88.2682C239.091 87.3396 240.186 86.3336 241.215 85.3276C242.245 84.3217 242.567 84.4764 243.018 85.9467C243.79 88.5003 243.79 88.5003 246.043 88.1908C250.678 87.5717 255.377 87.3396 260.011 86.5658C266.706 85.405 273.4 84.2443 279.901 81.6133C281.253 81.149 282.541 80.4526 283.764 79.6014C284.407 79.0597 284.987 79.0597 285.308 79.9883C285.244 82.774 284.858 85.5598 284.278 88.2682C283.892 90.0479 283.957 91.8277 283.764 93.6849C283.313 99.179 283.184 104.673 283.442 110.167C283.828 121.465 285.051 132.685 285.888 143.983C286.081 146.769 286.853 149.4 287.175 152.186C287.239 152.805 287.561 152.96 287.948 152.65C288.398 152.263 288.849 151.954 289.364 151.644C289.943 151.18 290.78 151.335 291.23 152.108C291.295 152.263 291.359 152.34 291.359 152.495C291.938 153.966 292.26 155.513 292.453 157.138C292.518 157.912 292.196 158.686 291.552 159.073C290.587 159.847 289.557 160.62 288.591 161.394C288.527 161.858 288.269 162.245 287.948 162.4C282.283 165.341 276.876 169.132 271.147 171.918C270.117 172.46 269.023 172.847 267.929 173.234C266.384 173.698 266.319 173.853 266.899 175.632C268.251 180.198 269.989 184.609 272.113 188.71C272.241 187.936 272.306 187.24 272.241 186.466C272.306 185.383 272.306 184.299 273.4 183.99C274.494 183.68 274.816 184.686 275.267 185.537L280.288 196.216C282.026 199.698 283.699 203.413 285.695 207.05C286.016 206.353 286.016 205.347 286.918 205.425C287.819 205.502 288.269 206.431 288.656 207.204C291.037 212.466 293.29 217.728 296.058 222.758C297.732 225.931 299.148 229.258 300.435 232.663C300.757 233.514 301.143 234.288 301.594 234.984C302.817 237.074 303.718 239.318 304.362 241.717C304.49 242.104 304.555 242.568 304.619 243.032C304.684 244.038 304.169 244.425 303.396 244.27C302.817 244.038 302.302 243.729 301.851 243.264C300.886 242.413 299.985 241.485 299.083 240.633C298.633 240.169 298.247 239.473 297.539 240.324C297.217 240.711 296.573 240.324 296.251 239.937L294.127 237.615C293.741 237.461 293.612 237.615 293.741 238.08C294.32 240.788 295.157 243.342 296.38 245.741C297.667 248.604 299.019 251.312 300.5 254.02C300.757 254.64 301.014 255.336 301.208 255.955C301.401 256.574 301.594 257.193 301.208 257.812C300.821 258.431 300.242 258.276 299.727 258.044C299.405 257.89 299.083 257.812 298.826 257.735C298.504 259.515 298.375 259.747 296.959 259.437C294.32 258.818 291.745 257.89 289.299 256.574C285.115 254.407 281.189 251.544 277.584 248.139L275.267 246.05L275.138 245.973C275.074 245.895 275.009 245.818 274.881 245.818C273.464 244.193 273.014 242.258 272.95 239.937C272.692 231.502 273.4 223.068 274.945 214.865C275.396 212.389 276.104 209.99 277.005 207.746C277.97 205.347 278.614 202.794 279.515 200.395C279.708 199.853 279.708 199.234 279.451 198.77C277.777 195.365 276.168 191.883 274.559 188.478C274.494 188.323 274.43 188.091 274.044 188.246V191.032C274.044 191.728 273.915 192.347 273.336 192.657C272.756 192.966 272.306 192.424 271.92 191.96C271.276 191.109 270.697 190.103 270.246 189.097C268.508 185.383 266.963 181.514 265.74 177.49C265.611 177.103 265.483 176.638 265.29 176.097C260.076 179.656 254.411 181.436 248.811 183.525C243.211 185.615 237.353 186.93 231.496 187.317C230.337 187.395 229.243 187.549 228.084 187.627C226.604 187.781 225.188 187.472 223.836 186.853C222.548 184.918 221.776 182.674 220.682 180.585C220.424 180.121 220.167 179.579 219.909 179.115C217.013 171.376 214.502 163.484 212.442 155.436C211.67 152.495 211.219 149.4 210.576 146.459C210.318 144.989 209.546 144.525 208.323 144.68C207.1 144.834 205.812 144.68 204.589 144.68C203.688 144.448 202.723 144.448 201.757 144.293C201.5 144.215 201.178 144.525 200.92 143.983C201.113 144.525 201.435 144.138 201.628 144.293C202.401 144.293 203.173 144.525 203.881 144.525C205.233 144.834 206.649 144.602 208.065 144.68C208.645 144.602 209.224 144.68 209.803 144.989C209.932 145.144 210.061 145.376 210.125 145.608C209.803 148.317 210.254 151.102 209.868 153.811C209.353 155.9 209.546 158.067 209.353 160.156C209.224 161.472 208.645 162.632 207.808 163.406C205.941 165.109 203.817 165.65 201.628 165.805C198.667 166.114 195.707 166.114 192.746 166.656H192.231C191.844 166.656 191.458 166.579 191.394 166.037C191.329 165.495 191.716 165.186 192.166 165.031C194.097 164.644 196.028 164.489 197.959 164.412C199.569 164.335 201.178 164.257 202.787 163.948C204.332 163.793 205.812 163.097 207.1 161.936C207.55 161.549 207.872 161.007 207.937 160.388C208.258 155.977 208.58 151.644 208.58 147.233C208.58 147.079 208.516 146.846 208.452 146.692C206.07 147.001 203.688 146.537 201.371 146.15C200.277 145.918 199.182 145.608 198.088 145.299C197.573 145.144 197.123 144.912 197.058 144.215C196.994 143.519 197.509 143.132 198.024 142.9C198.925 142.59 199.955 142.436 200.92 142.513C203.431 142.59 206.006 142.745 208.516 142.822H209.803C211.284 142.745 211.284 142.668 211.799 144.37C212.442 144.912 212.442 145.84 212.571 146.614C214.889 159.46 218.686 171.763 223.965 183.293C224.544 184.764 225.831 185.692 227.247 185.537C234.071 185.228 240.894 183.912 247.459 181.668C250.807 180.508 254.154 179.115 257.437 177.799C258.853 177.257 260.204 176.638 261.492 175.865C262.135 175.478 263.165 175.246 263.358 174.472C263.68 173.388 262.457 173.234 262.007 172.615C260.333 170.525 259.947 167.74 261.299 165.341C261.556 164.799 261.556 164.18 261.299 163.716C259.368 157.68 258.145 151.335 257.565 144.834C257.179 140.965 257.372 137.096 257.437 133.15C257.437 132.376 257.63 131.447 258.466 131.447C259.368 131.447 259.561 132.376 259.561 133.227C259.625 135.394 259.561 137.483 259.625 139.65C259.883 147.543 261.17 155.358 263.552 162.787C264.002 164.335 264.775 164.799 266.062 164.335C271.855 162.245 277.648 160.311 282.862 156.442L284.6 155.049C285.373 154.507 285.695 153.346 285.437 152.34C283.699 143.751 283.506 134.93 282.734 126.185C282.026 119.376 281.704 112.489 281.704 105.679C281.639 101.5 281.832 97.2445 282.283 93.0658C282.476 91.3634 282.219 91.1313 280.931 91.5182C273.143 94.1492 265.161 95.0004 257.115 95.8516C253.059 96.2385 248.94 96.6254 244.885 97.0897C244.241 96.7028 243.533 96.8576 243.018 96.1611Z" fill="black"/>
<path d="M300.564 232.431C300.049 231.812 299.663 231.115 299.405 230.342C296.573 223.609 292.904 217.496 290.072 210.841C289.492 209.448 288.849 208.133 288.205 206.74C288.012 206.353 287.819 205.966 287.497 205.657C287.175 205.347 286.725 205.425 286.467 205.734C286.338 205.889 286.274 206.044 286.274 206.276C286.21 206.895 286.21 207.514 286.274 208.21C285.759 207.746 285.373 207.204 285.115 206.508C281.704 199.93 278.614 193.198 275.46 186.543C275.202 185.924 274.881 185.305 274.559 184.686C273.915 183.758 273.078 183.99 272.885 185.15C272.756 186.079 272.692 186.93 272.692 187.859C272.628 188.323 272.563 188.865 272.499 189.793C269.795 184.764 267.607 179.269 266.062 173.543C266.255 173.234 266.513 173.001 266.834 173.001C268.959 172.46 271.018 171.609 272.95 170.525C276.812 168.436 280.609 166.347 284.278 163.948C285.437 163.174 286.531 162.168 287.948 162.091C288.334 162.091 288.527 161.549 288.849 161.317C289.557 166.347 290.394 171.376 291.037 176.406C291.617 180.662 292.003 184.996 292.518 189.252C293.741 198.924 295.028 208.52 297.217 217.96C298.247 222.758 299.405 227.633 300.564 232.431Z" fill="#38A1FC"/>
<path d="M232.654 29.7673C235.293 28.9161 236.388 30.6185 236.774 33.3269C236.903 34.1781 236.967 34.9519 237.096 35.8031C237.031 35.9579 237.031 36.1901 237.031 36.3448C236.903 36.4996 236.903 36.19 236.967 36.4996C237.031 36.8091 237.096 36.6543 237.16 36.4996C237.289 36.4222 237.418 36.3448 237.611 36.3448L238.641 35.8805C240.314 35.0293 242.181 35.2615 243.661 36.4996C244.305 37.0413 244.949 37.6603 245.592 38.202C245.657 38.3567 245.786 38.4341 245.914 38.5115L246.236 38.7437C246.301 38.6663 246.429 38.6663 246.494 38.7437C246.558 38.6663 246.558 38.5115 246.494 38.4341H246.429C246.429 38.202 246.365 37.9698 246.301 37.7377C246.107 36.4222 246.107 35.1841 246.172 33.8686C246.236 32.7852 246.622 31.7793 247.266 30.9281C248.296 29.6126 249.455 28.4518 250.806 27.5233C254.025 25.2018 257.308 25.6661 260.011 28.8388C261.299 30.3864 262.328 32.3209 262.908 34.4103C263.101 35.1067 263.616 35.6484 264.26 35.8031C264.646 35.9579 265.096 36.1127 265.483 36.3448C266.126 36.7317 266.706 37.2734 266.577 38.2794C266.448 39.1306 265.869 39.7496 265.096 39.9044C264.131 40.1365 263.165 40.0592 262.2 39.7496C261.492 39.4401 260.655 39.7496 260.269 40.5234C259.239 42.0711 257.951 43.3092 256.406 44.083C256.793 44.7021 257.308 44.5473 257.758 44.6247C261.105 45.3985 264.517 45.3211 267.864 44.3925C268.765 44.1604 269.667 44.083 270.568 44.0056C271.083 44.0056 271.791 43.8509 271.791 44.7795C271.791 45.5533 271.211 45.6307 270.696 45.6307C269.023 45.708 267.414 46.3271 265.74 46.4819C264.839 46.5592 264.517 47.0235 264.517 48.0295C264.324 58.1665 260.59 66.6786 256.278 75.0358C254.862 77.6668 252.737 79.6788 250.291 80.7621C248.296 81.8454 245.979 81.2264 244.563 79.2145C243.79 78.0537 243.082 76.8156 242.503 75.5001C241.666 73.7203 240.7 72.0953 239.542 70.7024C238.962 69.8512 237.933 69.4643 237.031 69.8512C233.684 71.2441 230.079 71.631 226.668 72.7144C222.548 74.0299 218.622 76.1192 215.081 78.9049C210.64 82.3871 207.615 87.417 205.169 92.9885C204.847 93.6849 204.782 94.8456 203.881 94.7682C202.98 94.6909 202.916 93.5301 202.787 92.6789C201.821 87.9586 202.079 83.1609 202.723 78.4406C204.203 67.8393 209.16 60.3332 216.626 54.9165C219.33 52.9046 221.969 50.8926 224.672 48.8033C225.96 47.0235 227.827 46.1723 229.307 44.7021C229.951 44.1604 230.594 43.5413 231.109 42.9223C229.886 41.8389 228.535 40.9877 228.213 38.9758C227.569 38.5115 226.861 38.8984 226.153 38.7437C225.767 38.6663 225.316 38.6663 224.866 38.5115C224.479 38.4341 224.158 38.0472 224.158 37.5829C224.093 37.1186 224.351 36.6543 224.672 36.4996C225.252 36.19 225.895 35.9579 226.475 35.7258C226.925 35.571 227.44 35.4936 227.891 35.4162C228.792 35.4162 229.629 34.7198 229.886 33.6364C230.594 32.0114 231.56 30.6959 232.654 29.7673Z" fill="black"/>
<path d="M288.784 20.0172C287.947 20.3267 287.239 20.8684 286.596 21.5648C284.729 23.2673 282.605 24.5828 280.416 25.5113C279.644 25.8982 279.065 25.8209 278.936 24.5827C278.936 23.8089 279.451 23.6542 279.837 23.422C282.09 22.2613 284.278 20.791 286.338 19.0886C288.141 17.6184 290.265 17.0767 292.389 16.3803C293.161 16.1481 293.869 15.8386 294.642 15.5291C293.741 15.3743 293.097 15.529 292.389 15.3743C291.745 15.3743 291.23 14.91 291.037 14.2136C290.844 13.5171 291.102 12.7433 291.552 12.279C292.003 11.8147 292.518 11.4278 293.033 11.1183C298.053 8.02299 303.396 6.39797 308.867 5.15986C309.318 5.08248 309.833 5.23724 310.155 4.92771C310.09 5.08248 309.769 5.0051 309.511 5.08248C306.615 4.92771 303.718 5.15986 300.886 5.77892C296.573 6.55274 292.453 8.48729 288.784 11.4278C287.883 12.1242 286.789 13.3624 285.759 12.1242C284.729 10.8861 285.566 9.57063 286.081 8.4099C286.918 6.55274 287.754 4.77295 289.106 3.45745C289.17 3.38007 289.235 3.30269 289.299 3.30269C289.235 3.22531 289.235 3.22531 289.106 3.38007C283.699 6.39797 280.481 11.8147 277.777 17.9279C277.198 19.166 277.005 20.7136 275.91 21.6422C275.653 21.9518 275.46 22.6482 274.945 22.2613C274.559 21.9518 274.623 21.4875 274.752 21.1006C275.138 19.9398 275.524 18.7017 275.975 17.541C276.425 16.3803 277.005 14.9874 277.584 13.7493C278.485 12.279 279.322 10.8087 280.223 9.41587C282.476 5.62415 285.63 2.68363 289.299 1.05861C289.879 0.826465 290.393 0.594319 290.973 0.516937C292.003 0.362173 292.453 1.29076 291.938 2.37411C291.617 2.99316 291.295 3.53484 290.844 4.07651C289.75 5.54677 288.784 7.09441 287.947 8.71943C287.819 8.8742 287.819 9.10634 287.819 9.26111L287.754 9.41587L287.883 9.33849L288.269 9.10634C294.256 4.5408 300.821 2.91578 307.838 2.8384C308.996 2.8384 310.09 2.99316 311.185 3.30269C312.408 3.61222 312.987 4.23127 312.923 5.0051C312.858 6.16583 311.957 6.39797 311.313 6.55274C309.318 7.17179 307.323 7.63608 305.327 8.25514C301.529 9.26111 297.86 10.7314 294.384 12.7433C294.964 13.285 295.543 13.1302 296.058 13.3624C296.702 13.5945 297.281 13.904 297.41 14.8326C297.538 15.6838 297.217 16.535 296.573 16.9219C296.187 17.2315 295.736 17.4636 295.286 17.6184C293.097 18.4696 290.973 19.2434 288.784 20.0172Z" fill="#010101"/>
<path d="M265.483 12.5885C267.478 14.6779 269.152 17.0767 269.731 20.4041C269.989 22.0291 269.796 23.6542 269.152 25.1244C268.637 26.2852 268.058 26.4399 267.221 25.5887C265.998 24.428 264.839 23.1899 263.616 22.0291C260.784 19.3208 257.437 17.4636 253.896 16.7672C253.381 16.6898 252.802 16.6124 252.287 16.6124C251.965 16.6124 251.644 16.6124 251.45 16.1481C251.322 15.6838 251.45 15.2195 251.708 14.91C252.352 14.1362 252.995 13.3624 253.768 12.8207C253.961 12.6659 254.09 12.5112 254.283 12.3564C256.664 10.8861 259.368 10.4218 261.943 10.9635C263.166 11.273 264.389 11.8147 265.483 12.5885Z" fill="black"/>
<path d="M160.883 64.8214C160.432 64.8214 159.981 64.8214 159.981 64.125C159.981 63.5059 160.368 63.4285 160.818 63.3512C161.269 63.2738 161.784 63.119 162.234 63.119C164.423 62.8869 166.418 61.6487 167.77 59.5594C169.379 57.238 170.602 54.6844 171.504 51.8986C172.34 49.345 173.242 46.714 174.143 44.1604C176.46 37.6603 180.451 33.0948 185.729 30.1543C187.403 29.2257 189.141 28.6066 190.943 28.2971C191.394 28.2197 191.844 28.1423 191.973 28.8388C192.037 29.4578 191.651 29.6126 191.329 29.7673C191.007 29.9221 190.492 30.0769 190.106 30.1543C183.669 32.1662 178.777 36.577 175.816 43.8509C174.658 46.6366 173.756 49.5771 172.855 52.4403C171.89 55.4582 170.474 58.3213 168.736 60.7202C166.611 63.6607 163.972 64.744 160.883 64.8214Z" fill="#020202"/>
<path d="M238.319 19.2434C239.284 20.0946 240.057 21.3327 240.443 22.7256C240.765 23.9637 240.443 24.5054 239.413 24.6601C237.546 24.8923 235.744 25.2018 234.07 26.4399C234.006 26.7494 233.748 26.7494 233.555 26.8268C232.525 27.4459 231.624 28.2197 230.852 29.3031C230.659 29.6126 230.273 29.69 229.951 29.5352C229.693 29.3804 229.629 28.9935 229.629 28.684C229.371 25.2018 232.461 20.0172 235.293 19.0886C236.323 18.7017 237.353 18.7791 238.319 19.2434Z" fill="#010101"/>
<path d="M34.7834 106.376C35.0409 99.6433 35.7489 92.9885 36.9076 86.3336C37.6156 82.0002 38.7099 77.8216 40.1904 73.7203C40.3191 73.3334 40.5123 72.8691 40.7054 72.4822C40.8341 72.0953 41.1559 71.9406 41.4778 72.0953C41.864 72.3275 41.864 72.7144 41.7353 73.1013C41.6709 73.4882 41.5422 73.8751 41.4134 74.1846C38.9674 81.2264 37.7444 88.6551 36.9076 96.1611C36.457 100.262 36.1352 104.364 36.0064 108.542C35.8777 110.322 36.0064 112.179 36.3283 113.959C36.457 114.423 36.3926 114.888 35.942 115.042C35.4915 115.197 35.234 114.81 35.1052 114.346C34.9765 113.882 34.9121 113.495 34.8478 113.03C34.5903 110.941 34.5903 108.62 34.7834 106.376ZM94.1318 66.2143C92.7157 66.369 91.2995 66.2143 89.9478 65.9048C89.6903 65.8274 89.4328 65.75 89.1754 65.5952C88.7891 65.4405 88.4673 65.1309 88.596 64.5893C88.7248 64.0476 89.111 63.9702 89.4972 64.125C91.6857 64.9762 94.003 64.744 96.256 64.5893C101.92 64.125 106.684 59.2499 107.907 52.595C108.55 49.4998 107.07 46.3271 103.852 46.7914C103.401 46.8688 102.95 47.0235 102.822 46.3271C102.693 45.6307 103.208 45.3211 103.723 45.1664C106.233 44.3926 109.001 46.7914 109.387 50.0414C109.516 51.5891 109.323 53.1367 108.872 54.607C107.392 60.0237 102.95 66.0595 96.0629 66.2143H94.1318Z" fill="#030303"/>
<path d="M164.68 122.394C164.68 122.935 164.68 123.322 164.294 123.477C163.972 123.632 163.586 123.4 163.457 123.013C163.457 122.935 163.457 122.935 163.393 122.858C163.264 122.394 163.2 122.007 163.071 121.542C161.848 114.81 159.273 108.852 156.312 103.048L155.733 101.887C155.604 101.578 155.604 101.191 155.862 101.036C156.119 100.804 156.441 100.804 156.699 101.036L156.763 101.114C156.956 101.346 157.149 101.578 157.278 101.887C160.496 107.923 163.329 114.191 164.552 121.388C164.616 121.697 164.68 122.084 164.68 122.394Z" fill="#040404"/>
<path d="M228.213 38.821C229.179 40.2913 230.08 41.9163 232.139 42.458C229.565 44.8568 227.312 47.1009 224.608 48.7259C224.286 46.6366 225.123 44.9342 225.767 43.2318C226.539 41.6068 227.312 40.2139 228.213 38.821Z" fill="#38A1FC"/>
<path d="M301.916 62.0357C302.173 59.6368 302.366 57.4701 302.624 55.3808C303.139 51.5117 303.653 47.5652 304.168 43.6961C304.233 43.1544 304.362 42.6901 304.426 42.1485C304.49 41.6068 304.748 41.2199 305.198 41.3747C305.649 41.5294 305.713 41.9937 305.649 42.458C305.456 43.6961 305.263 44.8568 305.134 46.095C304.619 50.6605 304.104 55.226 303.525 59.7142C303.46 60.4106 303.332 61.1071 303.203 61.8035C303.139 62.2678 302.945 62.6547 302.43 62.6547C302.173 62.7321 301.916 62.4226 301.916 62.0357ZM307.644 74.3394C308.159 68.3036 308.546 62.7321 309.318 57.238C309.447 56.5415 309.382 55.4582 310.284 55.6903C310.992 55.9225 310.605 56.7737 310.541 57.3927C309.833 62.8095 309.447 68.3036 309.06 73.7203C308.996 74.4168 308.932 75.1132 308.803 75.8097C308.739 76.2739 308.546 76.7382 308.031 76.5835C307.516 76.4287 307.58 76.0418 307.58 75.6549C307.644 75.1132 307.644 74.4942 307.644 74.3394Z" fill="#050505"/>
<path d="M42.6365 88.036C42.3791 88.036 42.1216 87.7265 42.1216 87.417C42.1216 86.9527 42.186 86.4884 42.3147 86.1015C43.2159 82.8514 44.3745 79.7561 45.855 76.8156C46.1125 76.274 46.3699 75.4228 47.0136 75.8097C47.6573 76.1966 47.2711 76.893 47.0136 77.5121C45.5975 80.6847 44.1814 83.8574 43.3446 87.417C43.2159 87.8813 42.9584 88.1134 42.6365 88.036Z" fill="#070707"/>
<path d="M164.874 55.9225C164.552 55.9225 164.294 55.6129 164.294 55.226C164.294 55.1487 164.294 55.0713 164.359 54.9939C164.423 54.6844 164.68 54.4522 164.874 54.2974C166.869 52.5177 168.349 50.1188 169.186 47.4104C169.251 47.2557 169.251 47.0235 169.379 46.8688C169.508 46.4819 169.83 46.3271 170.152 46.4045C170.409 46.4819 170.602 46.8688 170.538 47.1783L170.345 48.1069C169.508 50.8926 168.092 53.2915 166.225 55.1486C165.775 55.6129 165.324 55.8451 164.874 55.9225Z" fill="#090909"/>
<path d="M168.542 116.435C168.542 116.822 168.478 117.132 168.221 117.286C167.899 117.441 167.577 117.286 167.448 116.9C167.255 116.513 167.126 116.048 167.062 115.661C166.547 112.644 166.032 109.703 164.745 107.072C164.552 106.762 164.487 106.298 164.809 105.989C165.131 105.679 165.517 105.911 165.775 106.298C165.839 106.376 165.903 106.53 165.968 106.608C167.448 109.626 167.963 113.03 168.542 116.435Z" fill="#060606"/>
<path d="M114.344 50.1962C114.344 51.0474 114.215 51.8986 114.022 52.6724C113.829 53.2141 113.764 53.9105 113.121 53.7558C112.477 53.601 112.606 52.9046 112.735 52.2855C112.992 51.4343 113.056 50.5057 113.056 49.6545C113.056 47.72 112.477 45.9402 111.383 44.5473C111.061 44.1604 110.739 43.6961 111.19 43.2318C111.64 42.7675 112.026 43.0771 112.348 43.464C113.7 45.3211 114.473 47.72 114.344 50.1962Z" fill="#090909"/>
<path d="M234.585 13.8266C234.779 13.8266 234.972 13.904 235.1 13.9814C235.293 14.0588 235.487 14.2909 235.487 14.5231C235.551 14.8326 235.358 15.1421 235.1 15.2195L234.328 15.4517C232.912 15.6838 231.624 16.3029 230.466 17.2315C230.144 17.541 229.822 17.7731 229.5 17.3088C229.178 16.8445 229.372 16.3029 229.758 15.9933C231.109 14.7552 232.783 13.9814 234.585 13.8266Z" fill="#101010"/>
<path d="M300.757 68.4584C300.757 67.2976 301.336 66.369 302.044 66.369C302.752 66.369 303.589 67.6072 303.589 68.5357C303.589 69.5417 302.946 70.3929 302.109 70.3929C301.336 70.4703 300.757 69.6191 300.757 68.4584Z" fill="#070707"/>
<path d="M262.329 6.08844C262.586 6.16582 262.843 6.32059 262.972 6.55273C263.745 7.5587 264.775 8.25514 265.869 8.56466C266.191 8.64205 266.513 8.87419 266.448 9.33849C266.384 9.80278 265.998 10.0349 265.611 10.1123C264.646 10.1897 262.135 8.33252 261.749 7.24917C261.62 6.63011 261.878 6.08844 262.329 6.08844Z" fill="#121212"/>
<path d="M308.996 81.3812C308.996 82.2324 308.481 83.0062 307.773 83.0836C307.065 83.0836 306.55 82.4645 306.55 81.6133C306.421 80.8395 306.872 79.9883 307.516 79.8335C308.159 79.6788 308.867 80.2204 308.996 80.9943V81.3812Z" fill="#0D0D0D"/>
<path d="M293.741 237.848C293.483 237.615 293.29 237.151 293.547 236.919C293.805 236.687 294.062 236.996 294.127 237.383C293.934 237.383 293.869 237.615 293.741 237.848Z" fill="#818181"/>
<path d="M287.625 9.41587C287.625 9.10634 287.754 8.79682 288.012 8.64205L288.398 9.10634C288.398 9.33849 288.205 9.41587 288.076 9.49325C287.947 9.64802 287.754 9.57064 287.625 9.41587Z" fill="#949494"/>
<path d="M233.556 26.8268C233.62 26.5947 233.813 26.5173 234.07 26.4399C234.199 26.6721 234.264 26.8268 234.006 26.9042L233.556 26.8268Z" fill="#B6C5D7"/>
<path d="M216.819 276.771C217.656 274.836 218.557 272.902 219.587 271.045C220.424 269.652 221.325 268.413 222.355 267.253C222.999 266.402 224.029 266.092 224.866 266.556C225.896 267.098 225.96 268.181 225.96 269.342C225.896 270.735 225.445 272.128 224.673 273.289C223.707 274.914 222.613 276.461 221.39 277.854C220.81 278.396 220.36 279.015 219.974 279.711C219.137 280.562 218.3 281.568 217.592 282.574C217.27 283.039 217.141 283.735 216.498 283.503C215.79 283.193 215.918 282.42 215.983 281.723C216.111 280.021 216.562 278.396 216.819 276.771Z" fill="#000101"/>
<path d="M305.198 296.116C304.04 294.182 302.688 292.402 301.787 290.235C301.208 288.997 300.757 287.682 300.628 286.289C300.564 285.283 300.628 284.277 301.465 283.735C302.237 283.271 303.139 283.426 303.718 284.122L304.812 285.205C305.198 286.134 305.713 286.985 306.357 287.682C308.481 290.313 309.769 293.717 310.026 297.354V298.902C310.026 299.521 309.962 300.063 309.382 300.295C308.803 300.527 308.159 300.218 307.902 299.521C307.258 298.36 306.55 297.354 305.778 296.348C305.585 296.348 305.392 296.271 305.198 296.116ZM276.554 303.545C274.752 299.831 274.301 295.342 275.396 291.241C275.589 290.235 276.039 289.307 276.619 288.533C277.52 287.527 278.55 287.682 278.936 288.997C280.416 293.64 281.06 298.283 279.386 303.081C279.258 303.313 279.193 303.545 279.065 303.777C278.357 305.093 277.842 305.17 276.94 304.087C276.876 303.932 276.683 303.7 276.554 303.545Z" fill="#000001"/>
<path d="M245.657 292.944C246.365 291.706 247.009 290.467 247.717 289.307C248.618 287.682 249.841 286.366 251.257 285.36C252.802 284.354 254.347 285.438 254.411 287.604C254.411 288.92 253.961 290.158 253.124 291.086C251.965 292.634 250.485 293.717 249.197 295.11C248.876 295.42 248.489 295.652 248.232 296.116C247.395 296.813 246.687 297.664 246.108 298.67C245.528 299.444 245.078 299.289 244.885 298.36C244.627 297.664 244.627 296.813 244.82 296.116C245.142 295.033 245.4 294.027 245.657 292.944Z" fill="#000101"/>
<path d="M282.862 270.116C282.347 269.42 281.575 269.11 280.996 268.568C280.609 268.259 280.223 267.794 280.03 267.33C279.644 266.402 279.901 265.241 280.674 264.777C280.867 264.622 281.124 264.544 281.382 264.544C282.412 264.39 283.442 264.699 284.278 265.473L285.63 266.866L288.14 270.348C288.462 270.812 288.784 271.354 289.106 271.896C289.428 272.437 289.364 273.134 288.977 273.598C288.977 273.598 288.913 273.598 288.913 273.676C288.462 274.14 288.14 273.83 287.754 273.521C286.209 272.205 284.536 271.277 282.862 270.116Z" fill="#010101"/>
<path d="M275.138 245.663H275.202L275.266 245.74L275.138 245.818V245.663Z" fill="#4B8EE2"/>
<path d="M265.032 240.479C265.804 243.264 266.062 246.282 266.513 249.145C267.027 253.092 267.414 257.038 267.542 261.062C267.671 263.074 267.414 263.306 265.676 262.842C263.809 262.3 262.2 260.907 261.234 258.973C259.239 255.491 257.951 251.544 257.501 247.366C257.243 245.044 256.986 242.8 256.728 240.479C256.6 239.55 256.535 238.699 256.664 237.77C256.728 237.693 256.857 237.538 256.922 237.538C259.754 238.002 262.586 238.621 265.032 240.479Z" fill="#E1F0FF"/>
<path d="M259.818 228.02C259.432 228.794 258.981 228.407 258.724 227.943C258.273 227.246 257.887 226.55 257.436 225.776C255.312 221.597 253.896 217.109 252.351 212.621C250.935 208.442 249.455 204.264 247.073 200.704C246.815 200.317 246.622 199.93 246.944 199.466C247.266 199.002 247.781 199.234 248.039 199.621C248.36 200.085 248.682 200.472 248.94 201.014C250.678 204.186 252.158 207.591 253.381 211.151C254.733 214.943 255.892 218.812 257.565 222.449C257.887 223.145 258.209 223.764 258.531 224.461C258.981 224.77 259.303 225.234 259.496 225.776L259.882 226.705C260.011 227.246 260.14 227.633 259.818 228.02Z" fill="#010203"/>
<path d="M259.818 228.02C259.818 227.633 259.689 227.246 259.496 226.859C259.754 226.318 259.432 226.008 259.303 225.544C258.981 225.002 259.11 224.306 258.853 223.687C257.887 220.205 257.243 216.568 256.085 213.163C256.02 212.931 255.956 212.698 255.892 212.389C255.827 212.002 255.827 211.538 256.149 211.383C256.6 211.151 256.857 211.46 257.05 211.925C257.437 213.085 257.823 214.169 258.145 215.329C258.66 217.264 259.11 219.199 259.625 221.056C260.784 225.621 262.65 229.955 264.968 233.824C265.869 235.217 265.74 235.449 264.26 235.913C262.972 233.359 261.492 230.961 260.398 228.33C260.333 227.943 260.14 228.02 259.818 228.02Z" fill="#020204"/>
<path d="M244.498 212.234C244.434 212.853 244.112 213.008 243.726 212.931C243.275 212.776 242.953 212.544 242.631 212.157C238.898 208.52 235.615 204.264 232.976 199.466C232.783 199.234 232.719 198.924 232.654 198.615C232.654 198.228 232.912 197.841 233.233 197.841C233.362 197.841 233.491 197.841 233.555 197.919C233.877 198.151 234.135 198.538 234.263 198.924C236.838 203.49 239.992 207.514 243.533 210.996C243.919 211.306 244.369 211.615 244.498 212.234Z" fill="#010304"/>
<path d="M241.408 204.341C241.73 204.341 241.988 204.496 242.181 204.728C244.176 206.585 246.236 208.365 248.232 210.222C248.682 210.609 249.455 211.073 249.004 211.847C248.489 212.776 247.845 211.925 247.395 211.46C245.592 209.835 243.79 208.21 241.988 206.508C241.537 206.198 241.215 205.811 241.022 205.27C240.829 204.806 241.022 204.419 241.408 204.341Z" fill="#030508"/>
<path d="M258.853 223.764C259.174 224.306 259.432 225.002 259.561 225.621C259.689 226.008 259.496 226.086 259.239 226.008C258.917 225.544 258.724 225.002 258.595 224.461C258.853 224.383 258.853 224.074 258.853 223.764Z" fill="#3A6CAC"/>
<path d="M82.0305 183.293C85.3133 192.27 89.9479 200.317 94.0032 208.675C94.325 209.371 94.6469 209.99 94.9687 210.687C97.4791 215.871 99.5389 221.365 101.213 227.092C102.436 231.58 102.951 236.3 102.629 241.02C102.178 247.366 100.826 253.556 98.5734 259.282C95.8055 266.479 91.2353 271.277 85.6352 274.991C81.3224 277.777 76.6235 279.634 71.7958 280.717C66.0026 282.265 60.0806 282.884 54.1587 282.42C45.0182 281.568 36.1353 279.247 28.2179 273.211C21.0085 267.794 16.1809 260.211 14.1854 250.151C12.4474 241.175 12.6405 231.812 14.7004 222.913C16.6958 213.859 19.7855 205.115 23.712 196.99C25.5144 193.198 27.3811 189.484 28.411 185.305C28.6041 184.531 28.7972 184.454 29.4409 184.686C35.7491 187.317 42.3147 189.02 48.9448 189.716C52.292 190.026 55.7035 189.948 59.1151 189.561C64.7796 189.02 70.4441 187.781 75.9798 186.002C78.0396 185.383 79.9707 184.222 82.0305 183.293Z" fill="#FFD574"/>
<path d="M109.516 183.835C109.774 183.912 110.031 183.99 110.224 184.144C115.567 187.162 121.36 188.168 127.153 188.865C133.075 189.406 138.997 189.484 144.919 189.097C149.361 188.942 153.866 188.246 158.179 186.93C159.982 186.389 161.784 185.615 163.458 184.531C164.037 184.222 164.294 184.299 164.616 184.918C166.998 190.18 170.088 194.823 173.242 199.466C178.713 207.514 181.481 216.8 182.575 226.937C183.734 237.616 181.867 247.598 177.941 257.038C174.529 265.163 169.122 271.741 162.363 275.92C158.823 278.164 155.218 280.253 151.356 281.414C148.073 282.342 144.662 282.652 141.25 282.497C131.659 282.033 122.197 279.557 113.314 275.146C109.387 273.211 105.525 270.967 102.371 267.485C101.213 266.247 100.183 264.777 99.2814 263.306C98.9596 262.842 98.8952 262.068 99.2171 261.527C102.564 254.098 103.98 246.05 104.173 237.615C104.238 235.604 104.045 233.592 103.723 231.657C102.629 225.931 100.891 220.359 98.5734 215.175C97.9297 213.859 97.8009 212.234 98.3159 210.764C99.1527 208.133 100.118 205.502 101.277 203.026C103.98 196.835 106.877 190.799 109.387 184.454C109.323 184.222 109.452 183.99 109.516 183.835ZM100.054 95.0778V101.268C100.118 101.887 100.054 102.739 100.762 102.739C101.47 102.739 101.277 101.81 101.277 101.191C101.341 96.8576 101.341 92.5242 101.341 88.1908C101.277 86.2562 100.826 84.3991 99.9895 82.774C100.44 82.0002 101.148 82.0002 101.727 81.9228C106.298 80.8395 110.868 80.2978 115.502 80.2204C116.339 80.2204 117.498 79.9883 117.884 80.9169C118.27 81.8455 117.305 82.774 116.725 83.4705C115.309 85.1729 114.473 87.4943 114.473 89.8932C114.279 93.8397 113.764 97.7088 113.378 101.655C113.25 103.126 113.185 104.596 113.185 106.143C113.185 106.685 113.25 107.304 113.764 107.382C114.408 107.459 114.473 106.762 114.473 106.143C114.537 102.816 114.923 99.5659 115.181 96.2385C115.374 93.7623 115.631 91.3634 115.889 88.9646C120.395 89.2741 124.643 88.4229 128.956 87.4943C131.337 86.9527 133.719 86.411 136.101 85.9467C136.68 85.7919 137.259 85.7919 137.903 85.8693C139.062 85.9467 139.448 86.6431 138.997 87.9586C138.74 88.8098 138.418 89.661 138.032 90.4349C134.427 98.56 130.436 106.376 126.703 114.423C126.252 115.352 125.608 116.048 124.836 116.435C120.459 118.834 115.889 120.536 111.125 121.542C105.203 122.858 99.1527 123.245 93.102 122.703C86.3432 122.084 79.7776 119.995 73.6625 116.513C72.5039 115.816 71.7314 114.733 70.7659 113.804C67.29 110.477 63.6209 107.536 60.0806 104.364C58.6001 103.048 57.184 101.655 55.8323 100.108C55.446 99.6433 55.1242 99.179 54.8023 98.6374C53.7724 96.7028 54.1587 94.1492 55.7035 92.7563C56.4759 91.9825 57.4415 91.4408 58.407 91.0539C63.0416 89.1967 67.8049 88.1134 72.697 87.8039C73.5338 87.7265 74.4349 87.8039 75.2717 87.9586C75.9798 87.9586 76.4948 88.6551 76.4948 89.5063V89.7384C76.4304 90.7444 76.2373 91.8277 75.9798 92.7563C75.2074 95.2325 75.143 98.0183 75.8511 100.572C76.881 104.828 78.1684 108.929 79.7132 112.953C79.9063 113.495 80.1638 114.036 80.4213 114.501C80.6144 114.888 80.8719 115.274 81.3224 115.042C81.773 114.81 81.7087 114.346 81.5156 113.882C81.3224 113.417 81.1293 112.798 80.9362 112.334C79.7132 109.239 78.6833 106.066 77.7821 102.739C77.589 102.352 77.5247 101.81 77.5247 101.346C86.0214 101.578 93.2307 97.7088 99.8608 91.7504C100.633 92.5242 99.9895 93.8397 100.054 95.0778Z" fill="#FFD574"/>
<path d="M96.5137 210.687C92.7159 202.484 88.21 194.746 84.6697 186.389C83.4467 183.448 82.6743 180.275 82.2881 176.948C82.1593 175.632 82.4168 174.317 83.0605 173.234C86.6008 166.347 89.6905 159.15 92.4584 151.721C93.0377 150.251 93.4239 148.704 93.7458 147.156C94.132 145.067 93.4883 144.215 91.7503 144.37C88.725 144.757 85.6353 145.299 82.6743 146.073C79.9064 146.846 77.0742 147.311 74.1775 147.465C73.5982 147.543 72.9545 147.543 72.3752 147.311C72.2465 146.537 72.8258 146.227 73.1476 145.763C73.727 145.067 74.2419 144.37 74.6925 143.519C75.4006 141.817 74.95 140.424 73.4051 139.882C72.3752 139.572 71.2809 139.418 70.1867 139.418H65.4233C67.1613 135.703 68.5131 131.989 69.9936 128.352C70.251 127.733 70.5085 127.578 71.1522 127.888C75.3362 130.132 79.842 130.828 84.3479 131.525C90.9135 132.453 97.6079 132.685 104.174 132.221C111.447 131.834 118.528 130.441 125.351 127.269C125.866 127.037 126.252 126.65 126.703 127.578C128.827 131.834 131.852 135.007 134.749 138.412C135.135 138.876 135.521 139.34 135.972 139.727C136.551 140.192 136.744 140.965 136.551 141.739C136.294 142.9 136.744 143.983 137.131 145.067C137.967 147.543 137.839 148.317 135.972 149.787C131.852 152.96 127.604 155.9 122.776 157.37C121.618 157.757 120.459 157.912 119.236 157.912C116.983 157.912 115.631 156.287 116.726 153.424C117.112 152.495 117.434 151.567 117.82 150.638C119.107 147.001 117.434 144.989 115.052 144.602C112.67 144.215 110.546 144.68 108.293 145.067C105.075 145.608 101.985 146.614 98.9597 148.084C97.7367 148.626 96.578 149.4 95.6125 150.406C93.1664 152.882 92.8446 155.823 94.9044 158.763C97.2217 162.091 99.9896 164.954 103.079 167.275C105.397 169.132 107.585 171.067 109.774 173.002C110.546 173.698 110.675 174.24 110.417 175.4C109.323 180.275 107.714 184.996 105.654 189.406C103.787 193.585 101.921 197.764 100.054 201.865C98.9597 204.341 97.9941 206.817 97.1573 209.448C97.0286 209.913 96.9642 210.377 96.5137 210.687Z" fill="#FFD574"/>
<path d="M117.112 159.305C120.395 160.001 123.356 159.15 126.188 157.757C129.664 156.055 133.075 153.966 136.229 151.489C136.551 151.18 136.937 150.948 137.324 150.87C137.452 151.567 137.517 152.34 137.452 153.037C137.517 155.358 137.517 157.68 137.517 160.001C137.517 160.543 137.517 161.007 137.581 161.549C137.646 162.091 137.967 162.555 138.482 162.4C138.869 162.323 139.126 161.858 139.126 161.394V159.847C139.19 155.513 138.933 151.18 138.804 146.846C138.74 146.073 138.547 145.299 138.289 144.602C138.096 143.983 137.903 143.442 137.71 142.745C137.517 141.662 137.71 141.352 138.611 141.043C138.997 140.888 139.319 140.811 139.705 140.811C143.117 140.656 146.464 140.424 149.876 140.346C151.163 140.192 152.45 140.346 153.738 140.656C154.961 141.12 155.218 141.817 154.51 143.055C154.253 143.519 153.931 143.983 153.609 144.37C152.837 145.376 152.322 146.614 152.129 148.007C151.614 151.567 150.906 154.971 150.262 158.454L150.069 159.614C150.004 160.233 150.069 160.853 150.712 160.93C151.227 161.007 151.485 160.62 151.614 160.079C151.742 159.537 151.871 159.073 151.936 158.608C152.386 155.9 152.901 153.114 153.352 150.406C153.609 148.858 153.609 148.936 155.025 148.858C158.501 148.781 162.041 148.317 165.453 147.62C167.835 147.079 170.216 146.692 172.598 146.227C172.984 146.15 173.37 146.15 173.757 146.15C174.272 146.15 174.4 146.459 174.4 147.001C174.336 147.698 174.143 148.394 173.821 149.013C170.088 157.216 166.74 165.65 162.943 173.698C162.556 174.549 161.977 175.246 161.205 175.555C158.115 176.871 154.896 177.799 151.678 178.418C145.82 179.656 139.898 180.121 133.977 179.966C128.827 179.811 123.677 178.883 118.721 177.025C115.503 175.71 112.477 173.698 109.838 171.222C107.778 169.365 105.654 167.507 103.53 165.805C101.213 163.87 99.024 161.781 97.0286 159.382C96.4493 158.686 95.9343 157.989 95.4837 157.138C94.5182 155.436 94.5826 154.12 95.6768 152.495C96.578 151.257 97.6723 150.329 98.9597 149.787C102.049 148.239 105.268 147.156 108.615 146.614C110.675 146.227 112.735 145.763 114.859 146.227C116.726 146.614 117.241 147.698 116.597 149.787C116.404 150.329 116.211 150.87 115.953 151.412C114.73 153.733 114.794 156.21 115.245 158.763C115.631 160.93 116.275 162.942 116.854 165.031C116.983 165.418 117.112 165.728 117.305 166.037C117.498 166.424 117.82 166.579 118.142 166.347C118.464 166.192 118.657 165.805 118.592 165.418C118.464 164.876 118.335 164.257 118.206 163.716C117.755 162.245 117.369 160.775 117.112 159.305ZM36.5859 159.382C39.8044 159.769 43.0872 159.305 46.177 157.835C49.7816 156.287 53.2576 154.275 56.476 151.799C56.5404 151.721 56.6691 151.799 56.9266 151.799C56.9266 154.43 56.991 157.061 56.991 159.692C56.991 161.007 57.0553 162.245 57.1841 163.561L57.3772 164.489C57.5059 164.722 57.699 164.876 57.8921 164.799C58.0853 164.799 58.2784 164.644 58.4071 164.335C58.4715 164.025 58.5358 163.716 58.4715 163.406C58.0853 159.924 58.2784 156.442 58.1496 152.882C58.0853 151.257 57.8921 149.709 58.4071 148.084C58.7933 147.001 58.3427 145.763 57.7634 144.757C57.4416 144.215 57.1197 143.751 56.8622 143.287C56.991 142.668 57.3772 142.745 57.6347 142.668C62.2692 141.43 66.9038 140.501 71.7315 141.12C71.9246 141.12 72.1821 141.12 72.3752 141.197C73.6626 141.507 73.8557 142.049 73.0833 143.287C73.0189 143.442 72.8902 143.596 72.7614 143.751C70.8947 145.453 70.3798 147.93 70.1867 150.561C69.9935 153.424 69.6073 156.21 69.3499 159.073C69.2855 159.382 69.2855 159.692 69.2855 160.001C69.2855 160.388 69.543 160.775 69.8648 160.775C70.251 160.775 70.4441 160.466 70.4441 160.001C70.6372 157.989 70.8303 156.055 71.0235 154.043C71.1522 152.727 71.2809 151.335 71.4097 150.019C71.474 149.323 71.6028 148.936 72.3108 149.013C76.3661 149.323 80.357 148.162 84.2835 147.233C86.5364 146.692 88.8537 146.382 91.1066 145.918C91.4929 145.763 91.9434 145.84 92.2653 146.15C92.1365 147.62 91.7503 149.013 91.2354 150.329C88.5319 157.757 85.4421 164.954 81.9662 171.841C81.58 172.537 81.0007 173.079 80.357 173.388C76.0443 176.097 71.4097 177.877 66.582 178.728C54.03 181.049 41.993 179.192 30.4709 172.692C29.8916 172.382 29.3122 171.996 28.7973 171.454C26.8018 169.055 24.4202 167.198 22.2316 165.186C20.2362 163.406 18.3695 161.394 16.6315 159.305C15.8591 158.454 15.2797 157.448 14.8935 156.287C14.443 154.971 14.6361 153.346 15.5372 152.34C16.1809 151.567 16.889 150.87 17.7258 150.406C21.9741 147.775 26.6087 146.305 31.372 146.073C32.2732 145.918 33.2387 146.073 34.0755 146.459C35.3629 147.156 35.8779 148.162 35.6204 149.864C35.4273 150.948 35.1698 151.954 34.7836 153.037C34.2043 154.971 34.2043 157.061 34.7192 158.918C35.7491 162.942 37.1009 166.811 38.4527 170.68C38.517 170.835 38.517 170.912 38.5814 171.067C38.7745 171.531 39.032 172.073 39.5469 171.763C40.0619 171.454 39.8688 170.99 39.74 170.525L39.1607 168.668L36.4572 160.543C36.5859 160.388 36.5216 159.924 36.5859 159.382ZM100.054 95.0778C99.9252 94.304 99.9252 93.4528 99.9896 92.6789C99.9896 92.2146 100.054 91.7503 99.6677 91.5182C99.7321 91.3634 99.8608 91.2087 99.9252 91.0539C100.247 90.8218 100.311 91.2087 100.311 91.4408C100.183 92.6016 100.376 93.9171 100.054 95.0778Z" fill="#FFD574"/>
<path d="M308.996 5.46939C305.649 6.47535 302.173 7.24918 298.826 8.64205C296.959 9.41587 295.092 10.3445 293.29 11.4278C292.775 11.7373 292.26 12.1242 291.745 12.5112C291.23 12.8981 290.908 13.3624 291.102 14.1362C291.295 14.91 291.81 14.8326 292.325 14.8326C293.483 14.7552 294.706 14.8326 295.865 14.9874C295.543 15.6064 295.028 15.9933 294.513 16.0707C292.518 16.8445 290.522 17.6184 288.527 18.3148C287.754 18.547 286.982 19.0112 286.338 19.5529C284.278 21.4101 282.025 22.9577 279.579 23.9637C279.322 24.1185 279.129 24.2732 278.936 24.5054C278.485 24.5054 277.97 24.5054 277.777 24.0411C277.391 22.8803 276.49 22.4161 275.91 21.5649C277.584 16.4576 280.03 11.7373 283.184 7.71347C284.922 5.54677 286.982 3.84437 289.299 2.76102C289.621 2.60625 289.685 2.76102 289.621 3.14793C288.205 4.92771 287.046 6.93965 286.081 9.10634C285.695 9.95755 285.18 10.9635 285.888 11.8147C286.596 12.6659 287.432 11.8147 288.012 11.273C292.325 7.79085 297.345 5.54677 302.559 4.92771C304.877 4.46342 307.258 4.38604 309.64 4.77295C309.833 5.54677 309.189 5.15986 308.996 5.46939Z" fill="white"/>
<path d="M236.774 36.6543C236.838 36.3448 236.967 36.0353 237.16 35.8031L237.611 36.3448L237.225 36.7317C237.096 36.8091 236.903 36.8091 236.774 36.6543ZM246.301 37.7377C246.494 37.9698 246.623 38.202 246.623 38.5115C246.751 38.6663 246.687 38.8984 246.558 39.0532C246.365 39.0532 246.236 38.9758 246.236 38.7437L246.301 37.7377ZM245.914 38.5115C245.786 38.5115 245.593 38.3567 245.593 38.202C245.786 38.202 245.914 38.3567 245.914 38.5115Z" fill="#38A1FC"/>
<path d="M243.018 96.1611C244.498 96.1611 246.043 96.0064 247.523 95.6968C252.287 95.0778 257.114 94.923 261.878 94.304C268.894 93.3754 275.91 92.4468 282.733 89.7384C282.862 90.5896 282.862 91.5182 282.669 92.3694C281.768 101.268 282.025 110.245 282.669 119.144C283.248 126.65 283.828 134.078 284.407 141.584C284.729 145.067 285.179 148.549 285.952 151.876C286.274 152.96 285.952 154.198 285.051 154.817C281.124 157.989 276.811 160.466 272.241 162.091C269.988 162.942 267.735 163.716 265.418 164.489C264.002 164.954 263.938 164.876 263.358 163.329C261.813 158.918 260.719 154.275 260.075 149.555C259.11 144.061 258.852 138.489 259.11 132.918C259.174 132.221 259.367 131.293 258.531 131.138C257.694 130.983 257.823 132.066 257.823 132.763C257.114 143.906 258.917 154.507 262.328 164.954C261.942 165.263 261.17 165.031 260.912 165.882C260.719 166.656 260.719 167.43 260.848 168.204C261.298 170.448 262.007 172.382 264.131 173.001C264.71 173.156 264.774 173.698 264.259 174.085C263.294 174.936 262.264 175.555 261.17 176.097C256.793 178.263 252.222 179.888 247.717 181.514C241.215 183.758 234.585 185.073 227.826 185.46H226.668C225.252 185.537 224.351 184.764 223.642 183.216C218.622 171.996 214.824 160.001 212.378 147.543C212.12 146.305 211.992 144.989 211.799 143.751C215.21 142.668 215.274 141.739 215.661 137.251C215.918 134.543 215.468 131.834 215.274 129.126C215.274 128.971 215.21 128.894 215.21 128.739C214.824 125.412 214.309 125.025 211.605 126.185C210.254 126.727 208.902 127.423 207.55 128.043C206.649 128.507 205.748 128.894 204.782 129.048C204.396 129.203 204.074 129.358 204.139 128.584C206.134 127.191 208.323 126.185 210.576 125.489C217.463 123.477 223.771 119.685 229.951 115.739C230.337 115.507 230.594 115.042 231.109 115.197C231.496 116.048 231.045 116.822 230.852 117.596C229.822 121.31 228.728 124.947 227.569 128.507C226.475 131.989 227.312 135.162 228.341 138.257C228.728 139.495 229.371 139.572 230.144 138.489C231.624 136.477 233.04 134.388 234.65 132.376C235.229 131.602 235.615 130.596 235.68 129.59C236.066 124.483 236.709 119.453 236.774 114.346C236.709 112.411 236.967 110.477 237.482 108.62C239.799 105.137 241.087 101.036 242.631 97.0123C242.76 97.0123 242.889 96.6254 243.018 96.1611ZM243.339 89.9706C253.124 89.042 262.908 88.1908 272.499 85.7146C276.232 84.8634 279.901 83.4705 283.441 81.7681C284.021 81.7681 283.956 82.2324 283.828 82.6967C283.763 83.8574 283.635 85.0181 283.57 86.1789C283.57 87.1074 283.055 87.8813 282.283 88.1908C280.159 89.1968 277.906 89.9706 275.588 90.4349C269.602 91.8277 263.487 92.7563 257.372 93.298C252.673 93.7623 247.974 94.304 243.275 94.7683L243.339 89.9706ZM219.33 98.8695C220.875 95.7742 221.776 92.292 222.677 88.8098C225.702 91.1313 228.921 93.0659 232.332 94.5361C230.852 96.4707 229.114 98.1731 227.183 99.4886C223.836 101.965 220.424 104.286 217.012 106.685C216.819 106.84 216.562 107.149 216.24 106.84C217.012 104.751 218.042 102.816 218.429 100.495C218.557 100.185 218.622 99.7981 218.815 99.4886C218.944 99.2564 219.137 99.0243 219.33 98.8695Z" fill="white"/>
<path d="M237.482 109.007C237.418 113.727 237.096 118.447 236.774 123.167C236.581 125.334 236.388 127.423 236.259 129.513C236.195 131.138 235.615 132.685 234.585 133.769C233.105 135.471 231.753 137.328 230.466 139.263C230.401 139.418 230.273 139.572 230.144 139.727C229.243 140.811 228.535 140.733 228.02 139.34C227.569 138.102 227.376 136.709 226.99 135.471C226.41 133.537 226.41 131.525 226.99 129.59C228.213 124.792 229.822 120.227 231.109 115.507C231.303 114.733 231.753 114.036 232.268 113.572C232.526 113.417 232.719 113.34 232.912 113.727C233.427 114.888 232.783 115.816 232.526 116.822C232.139 118.215 232.526 118.37 233.555 118.138C234.843 117.905 235.422 117.209 235.422 115.584C235.422 114.114 235.036 112.644 235.873 111.328C236.001 110.245 236.645 109.393 237.482 109.007Z" fill="#010101"/>
<path d="M233.62 93.2206C230.595 92.1373 227.634 90.5896 224.93 88.6551C222.806 87.1848 223.063 87.4943 224.158 84.8633C227.827 87.3396 231.818 89.2741 235.937 90.5896C235.358 91.673 234.585 92.6016 233.62 93.2206ZM235.937 111.251C235.873 113.185 235.808 115.12 235.808 117.054C235.808 117.828 235.551 118.37 234.779 118.37C233.813 118.447 232.847 118.834 231.689 118.834C232.139 117.054 232.59 115.352 233.041 113.649C234.135 113.185 234.779 111.715 235.937 111.251Z" fill="white"/>
<path d="M209.932 144.834C209.417 144.37 208.773 144.293 208.129 144.448C206.713 144.602 205.297 144.525 203.881 144.37C203.817 143.596 204.203 143.906 204.525 143.983L208.902 144.061C210.511 144.061 210.511 144.061 210.64 145.995C210.254 146.382 210.382 146.924 210.382 147.388V151.721C210.382 152.263 210.511 152.882 210.061 153.346C209.996 151.489 209.996 149.632 210.125 147.775C210.125 146.769 210.061 145.84 209.932 144.834Z" fill="#4481CE"/>
<path d="M204.203 128.816C204.332 129.203 204.654 129.126 204.847 129.281C204.396 129.822 203.881 129.59 203.366 129.59C203.495 128.971 203.817 128.894 204.203 128.816Z" fill="#BED6F4"/>
<path d="M219.072 99.7207C219.008 100.108 218.815 100.417 218.493 100.572C218.364 100.108 218.429 99.6433 218.686 99.3338C218.944 99.2564 218.944 99.4886 219.072 99.7207Z" fill="#476285"/>
<path d="M219.072 99.7207C218.944 99.5659 218.815 99.4112 218.751 99.2564C218.751 98.9469 218.879 98.6374 219.072 98.4052L219.394 98.8695C219.394 99.2564 219.201 99.4886 219.072 99.7207Z" fill="#1E242B"/>
<path d="M302.109 241.02C299.534 238.931 297.345 236.145 295.801 232.895C295.479 232.199 295.157 231.58 294.771 230.961C294.642 230.651 294.32 230.574 294.063 230.728C293.741 230.883 293.612 231.27 293.741 231.657C293.869 232.044 293.998 232.354 294.191 232.663C294.578 233.514 295.028 234.443 295.479 235.371C295.543 235.758 295.414 235.99 295.092 235.836C293.483 233.824 292.067 231.58 290.908 229.258C288.527 224.847 286.724 220.05 284.858 215.329C284.665 214.633 284.343 214.014 283.957 213.472C283.699 213.163 283.377 213.085 283.055 213.318C282.734 213.55 282.798 213.937 282.927 214.323C285.566 220.669 287.69 227.401 291.295 233.127C291.681 233.592 291.874 234.211 291.938 234.83C292.196 239.86 294.063 244.116 296.122 248.372C297.152 250.538 298.311 252.705 299.341 254.872C299.534 255.104 299.598 255.568 299.47 255.878C298.118 255.181 296.83 254.33 295.607 253.324C295.157 253.014 294.706 252.318 294.191 252.937C293.676 253.556 294.256 254.098 294.706 254.485C295.286 254.949 295.157 255.955 295.736 256.419C295.801 256.806 295.672 257.038 295.35 256.884C290.072 255.413 285.373 252.395 280.931 248.836C279.129 247.443 277.52 245.741 275.717 244.193C274.945 243.574 274.494 242.568 274.494 241.485C274.301 238.157 274.237 234.752 274.43 231.425C274.687 225.467 275.395 219.585 276.618 213.782C277.584 209.448 279.451 205.579 280.481 201.246C281.124 201.555 281.253 202.175 281.446 202.639L284.729 208.907C285.051 209.526 285.501 210.145 285.888 210.764C286.918 212.079 287.304 212.002 288.141 210.377C289.814 213.859 291.423 217.341 293.097 220.824C294.384 223.532 295.994 226.008 297.281 228.717C299.083 232.586 301.079 236.377 302.559 240.479C302.688 240.943 302.495 241.02 302.109 241.02Z" fill="#38A1FC"/>
<path d="M290.2 153.114C290.908 154.275 290.844 155.513 291.166 156.596C291.359 157.216 291.037 157.602 290.651 157.835C289.878 158.376 289.106 158.995 288.269 159.537C283.184 162.555 278.228 165.728 273.078 168.513C270.825 169.829 268.379 170.835 265.933 171.454C264.195 171.841 262.586 170.525 262.2 168.436C262.135 168.126 262.135 167.74 262.135 167.43C262.135 166.966 262.393 166.888 262.65 166.811C263.294 166.656 263.938 166.656 264.581 166.501C271.34 164.567 278.034 162.323 284.085 157.912C285.887 156.596 287.432 154.817 289.299 153.733C289.557 153.501 289.814 153.346 290.2 153.114Z" fill="white"/>
<path d="M204.525 143.983L203.881 144.37C203.045 144.602 202.336 144.061 201.564 144.061C201.435 143.983 201.435 143.906 201.435 143.828C201.435 143.751 201.5 143.751 201.564 143.751C202.594 143.674 203.624 143.364 204.525 143.983Z" fill="#294E7D"/>
<path d="M295.092 235.836L295.479 235.371C295.865 235.836 296.251 236.3 296.444 236.919C296.573 237.074 296.508 237.306 296.38 237.461C295.865 237.074 295.35 236.532 295.092 235.836Z" fill="#4077BE"/>
<path d="M302.109 241.02L302.559 240.479C302.817 240.711 303.01 241.175 302.752 241.407C302.495 241.639 302.302 241.252 302.109 241.02Z" fill="#3868A6"/>
<path d="M295.35 256.884L295.736 256.419C295.994 256.497 296.316 256.806 296.187 257.038C295.994 257.503 295.672 257.193 295.35 256.884Z" fill="#35629D"/>
<path d="M283.828 82.6193C283.699 82.3097 283.828 81.8455 283.442 81.6907C283.57 81.4585 283.763 81.3038 283.956 81.4585C284.214 81.8455 284.085 82.2324 283.828 82.6193Z" fill="#7C7C7C"/>
<path d="M201.628 143.674V143.983C201.371 143.983 201.113 144.061 200.92 143.828C201.113 143.519 201.371 143.596 201.628 143.674Z" fill="#152941"/>
<path d="M296.38 237.461C296.38 237.306 296.444 237.074 296.444 236.919C296.636 236.996 296.7 237.229 296.7 237.461C296.636 237.693 296.508 237.693 296.38 237.461Z" fill="#355D8F"/>
<path d="M204.203 91.4408C203.238 87.417 203.431 83.3931 204.01 79.4466C204.332 76.8156 204.911 74.262 205.684 71.7858C207.872 65.3631 211.67 60.6428 216.433 56.9284C220.939 53.4462 225.702 50.351 230.08 46.5592C231.946 44.9342 233.749 43.3092 235.1 40.9104C236.259 39.0532 237.868 37.7377 239.735 37.196C240.636 36.8865 241.602 37.0413 242.374 37.5829C243.018 38.0472 243.661 38.5889 244.241 39.1306C248.489 43.6961 253.51 45.7854 259.046 46.4819L262.328 46.8688C262.2 47.5652 261.878 48.1843 261.427 48.6486C257.308 54.9939 252.029 60.1785 246.043 63.8154C240.829 66.9107 235.293 69.0774 229.5 70.1608C224.351 71.2441 219.394 73.5656 214.953 76.893C210.897 79.9883 207.55 84.3217 205.233 89.3515L204.203 91.4408Z" fill="white"/>
<path d="M239.799 68.7679C249.133 64.8214 256.857 58.6308 262.908 49.0355C263.036 50.2736 262.972 51.5891 262.714 52.8272C262.2 56.1546 261.363 59.4047 260.268 62.4226C260.204 62.5773 260.204 62.8095 260.075 62.9642C258.724 64.4345 257.243 65.75 255.956 67.375C255.698 67.6845 255.376 67.4524 255.055 67.2203C254.346 66.756 253.574 66.3691 252.802 66.1369C250.742 65.2857 248.489 65.9821 247.008 67.9167C246.107 69.0774 245.399 70.3155 244.82 71.7084C244.498 72.637 243.661 73.0239 242.889 72.7144C242.631 72.5596 242.374 72.3275 242.245 72.0953C241.473 70.8572 240.636 69.7739 239.799 68.7679Z" fill="white"/>
<path d="M261.556 35.0293C256.986 34.1007 252.673 33.0948 248.231 32.321C249.905 30.1543 251.707 28.2197 254.218 27.8328C255.441 27.678 256.728 28.1423 257.758 28.9935C259.625 30.309 260.59 32.3983 261.556 35.0293Z" fill="#38A1FC"/>
<path d="M257.887 67.7619C256.664 71.012 255.312 74.1846 253.059 76.5835C252.094 77.5121 251.064 78.3633 249.905 78.9049C248.039 79.9109 246.622 79.524 245.271 77.5894C244.627 76.6609 244.048 75.5775 243.597 74.4942C243.919 74.262 244.305 74.1846 244.691 74.3394C249.004 74.8811 252.609 73.1013 255.763 69.7739C256.342 69.1548 256.986 68.4584 257.565 67.8393C257.694 67.6845 257.823 67.6072 257.887 67.7619Z" fill="#FEFEFE"/>
<path d="M259.239 38.821C257.501 41.9163 255.312 43.0771 252.545 42.3806C250.227 41.8389 247.588 38.9758 247.395 36.1901C247.331 35.571 247.009 34.8746 247.588 34.4103C247.91 34.1781 249.39 34.7972 249.584 35.2615C249.777 35.7258 249.841 35.9579 249.97 36.3448C250.935 38.821 252.48 39.7496 254.733 39.208C255.184 39.1306 255.699 38.9758 256.149 38.7437C257.565 38.1246 257.565 38.1246 259.239 38.821ZM254.54 68.8453C252.223 71.3989 249.197 72.7918 246.043 72.8691C247.073 67.9167 250.549 66.2143 254.54 68.8453Z" fill="white"/>
<path d="M230.981 34.7198C231.431 33.5591 232.139 32.4757 232.976 31.6245C233.427 31.0828 234.071 31.0055 234.586 31.3924C235.1 32.0114 235.422 32.8626 235.422 33.7912C235.294 34.1781 235.036 34.1781 234.779 34.2555L230.981 34.7198Z" fill="#38A1FC"/>
<path d="M233.62 40.1365C232.204 41.1425 230.917 40.7556 230.08 39.208C229.951 38.9758 229.822 38.7437 230.015 38.5115C230.208 38.2794 230.53 38.3568 230.659 38.5889C231.174 39.5949 232.268 40.0592 233.169 39.6722C233.556 39.5175 233.684 39.7496 233.62 40.1365Z" fill="white"/>
<path d="M233.556 39.3627C234.006 39.0532 233.749 38.1246 234.457 37.8151C234.714 38.5115 234.328 38.9758 234.07 39.4401C233.942 39.5949 233.684 39.5175 233.556 39.3627Z" fill="#8D8D8D"/>
<path d="M257.887 67.375C257.951 67.0655 258.145 66.756 258.402 66.9107C258.66 67.0655 258.466 67.2976 258.273 67.375C258.08 67.4524 258.016 67.5298 257.887 67.375Z" fill="#414141"/>
<path d="M233.556 39.3627L234.071 39.4401C234.071 39.7496 233.878 40.0592 233.62 40.1365C233.556 39.9044 233.427 39.7496 233.234 39.6722L233.556 39.3627Z" fill="#A1A1A1"/>
<path d="M257.887 67.375H258.273C258.209 67.6072 258.209 67.8393 257.951 67.7619L257.823 67.8393L257.694 67.7619L257.887 67.375Z" fill="#A3A3A3"/>
<path d="M236.774 36.6543H237.224C237.096 36.8865 236.967 37.0413 236.774 36.9639C236.581 36.8865 236.581 36.8091 236.774 36.6543ZM246.558 39.1306L246.622 38.5889C246.815 38.7437 246.944 38.9758 246.815 39.2079C246.751 39.2853 246.622 39.2853 246.558 39.1306Z" fill="#38A1FC"/>
<path d="M308.996 5.46939L309.64 4.77295C309.897 4.69557 310.219 4.69557 310.477 5.0051C310.09 5.39201 309.575 5.54677 308.996 5.46939Z" fill="white"/>
<path d="M289.621 3.22531C289.621 2.99316 289.428 2.91578 289.299 2.8384C289.492 2.52887 289.75 2.21934 290.007 2.60625C290.136 2.8384 289.943 3.14793 289.621 3.22531Z" fill="#515151"/>
<path d="M287.626 9.41587L288.076 9.49325C287.947 9.7254 287.754 9.88016 287.561 9.7254C287.432 9.64802 287.497 9.49325 287.626 9.41587Z" fill="#4A4A4A"/>
<path d="M259.239 226.086L259.56 225.699C259.818 226.086 260.14 226.55 259.496 226.937L259.239 226.086Z" fill="#284B76"/>
<path d="M258.337 120.536C258.659 118.447 259.11 116.358 259.754 114.346C260.655 111.251 261.749 108.233 263.036 105.292C263.294 104.673 263.487 103.667 264.259 104.054C265.032 104.441 264.517 105.292 264.259 105.834C262.393 110.554 260.655 115.352 259.818 120.536C259.818 120.691 259.754 120.769 259.754 120.923C259.625 121.465 259.367 121.929 258.852 121.775C258.337 121.62 258.209 121.078 258.337 120.536Z" fill="#060606"/>
<path d="M234.779 128.584C234.907 130.054 234.457 131.525 233.556 132.531C232.075 134.31 230.723 136.168 229.114 138.18C228.728 136.4 228.277 134.775 227.955 133.072C227.698 131.912 228.213 130.828 228.406 129.668C228.406 129.435 228.599 129.203 228.792 129.126C230.852 128.894 232.847 128.662 234.779 128.584ZM229.114 127.346C229.693 125.257 230.208 123.554 230.723 121.775C230.916 121.156 231.109 120.769 231.689 120.691C232.912 120.614 234.07 120.072 235.422 120.15C235.422 122.161 235.165 124.096 234.972 126.108C234.972 126.495 234.714 126.804 234.392 126.804H234.328C232.719 126.959 231.045 127.191 229.114 127.346Z" fill="white"/>
<path d="M244.241 43.9283C245.142 43.9283 246.043 44.2378 246.88 44.7021C247.266 44.9342 247.459 45.3211 247.266 45.7854C247.073 46.1723 246.815 46.1723 246.429 46.095C244.562 45.708 244.498 45.8628 244.047 47.9521C243.983 48.4164 243.854 48.8807 243.468 49.0355C243.018 49.1902 242.567 48.9581 242.31 48.4938C241.601 47.6426 241.408 46.4045 241.73 45.2438C242.245 44.0056 243.211 43.9283 244.241 43.9283Z" fill="#040404"/>
<path d="M55.7678 225.621C57.1839 226.318 58.4069 227.401 59.4369 228.717C61.4323 231.58 60.338 235.449 57.3127 236.223C55.0597 236.764 55.0597 237.074 55.2529 234.056C55.3816 231.348 55.446 228.639 55.7678 225.621ZM54.9954 214.865C54.9954 217.574 54.8023 220.282 54.5448 222.99C52.8712 222.449 51.3263 221.984 49.7815 221.443C48.6228 220.978 48.4297 220.282 49.2665 219.199C50.747 217.032 52.7425 215.484 54.9954 214.865ZM139.319 234.288C139.512 230.419 139.448 226.55 139.834 222.758C142.344 223.609 144.018 226.627 143.632 229.722C143.31 232.508 141.765 234.133 139.319 234.288ZM130.887 219.818C131.788 217.496 134.942 215.407 138.804 214.556C138.868 216.258 138.804 218.038 138.547 219.663C138.482 220.05 138.353 220.282 138.032 220.205C135.779 219.74 133.526 220.205 131.273 220.05C131.144 220.127 131.015 219.895 130.887 219.818Z" fill="#FFD574"/>
<path d="M61.4323 219.276C61.8829 219.972 62.2691 220.437 62.591 220.978C63.299 222.062 63.6852 223.3 63.7496 224.693C63.814 225.621 64.1358 225.853 64.8439 225.853C66.775 225.776 68.7704 225.776 70.7015 225.853C71.3452 225.853 72.182 225.699 72.3751 226.782C72.5038 227.478 71.9245 227.865 70.6371 227.865C68.6417 227.865 66.6462 227.943 64.6508 227.865C63.9427 227.711 63.299 228.175 63.0416 228.949C62.0117 231.193 60.5312 233.05 58.6645 234.288C55.9609 236.3 52.8069 237.383 49.6528 237.461C49.7815 238.157 50.2321 238.467 50.5539 238.776C53.1931 241.794 55.9609 244.657 58.407 247.907C58.9863 248.681 59.5656 249.532 60.0806 250.384C60.4024 250.77 60.4024 251.467 60.0806 251.854C60.0806 251.854 60.0162 251.931 59.9518 251.931C59.4369 252.395 59.0507 252.009 58.7288 251.544C55.1885 246.282 50.9402 242.026 46.8205 237.538C46.6918 237.383 46.4987 237.229 46.3699 236.996C46.1125 236.687 45.9837 236.223 46.1768 235.758C46.3056 235.294 46.6918 235.062 47.078 235.139C47.4642 235.139 47.7861 235.217 48.1723 235.294C52.2275 235.681 56.2184 234.211 59.3725 231.115C60.2093 230.342 60.9174 229.413 61.4323 228.252C61.1105 227.556 60.6599 227.865 60.2737 227.865C56.9909 228.097 53.708 228.33 50.4896 228.562C49.9746 228.562 49.2022 228.949 49.1378 227.865C49.0734 226.782 49.7815 226.782 50.3608 226.705C51.9701 226.472 53.6437 226.395 55.2529 226.24C57.2483 226.086 59.2438 225.931 61.2392 225.853C62.0117 225.853 62.2048 225.467 62.1404 224.538C61.8829 221.907 59.3725 219.044 56.9265 219.044C53.5149 218.966 50.039 219.121 46.6274 219.199C44.3745 219.276 42.1216 219.585 39.8687 219.74H38.9031C38.6456 219.663 38.3882 219.431 38.3882 219.121C38.3238 218.734 38.4525 218.347 38.7744 218.193C39.1606 218.038 39.6112 217.883 39.9974 217.883C49.0091 216.722 58.0208 216.877 67.0324 217.187C68.1911 217.187 68.706 217.574 68.6417 218.27C68.4486 219.353 67.6761 219.276 66.9681 219.276C65.1014 219.199 63.2347 219.199 61.4323 219.276ZM144.662 219.431C145.048 220.205 145.37 220.746 145.627 221.288C146.207 222.449 146.464 223.764 146.4 225.08C146.335 226.008 146.657 226.318 147.365 226.395C149.296 226.627 151.227 226.937 153.158 227.246C153.802 227.324 154.639 227.246 154.703 228.407C154.768 229.103 154.124 229.413 152.901 229.181C150.905 228.871 148.91 228.639 146.915 228.33C146.271 228.097 145.563 228.484 145.241 229.181C144.018 231.27 142.344 232.895 140.349 233.824C137.452 235.449 134.234 236.068 131.08 235.681C131.08 236.377 131.53 236.764 131.852 237.151C134.169 240.479 136.616 243.729 138.74 247.288C139.255 248.139 139.77 249.068 140.156 249.997C140.413 250.461 140.349 251.08 139.963 251.389L139.898 251.467C139.383 251.854 138.997 251.467 138.74 250.925C135.779 245.276 131.981 240.401 128.312 235.371C128.183 235.139 128.054 234.984 127.926 234.752C127.668 234.365 127.668 233.901 127.797 233.514C127.99 233.127 128.376 232.895 128.762 233.05C129.149 233.127 129.471 233.282 129.857 233.359C133.848 234.365 137.967 233.437 141.379 230.806C142.28 230.187 143.052 229.336 143.696 228.252C143.439 227.556 142.924 227.788 142.602 227.711C139.319 227.478 136.101 227.246 132.818 227.014C132.303 227.014 131.53 227.169 131.53 226.163C131.53 225.157 132.303 225.234 132.818 225.234C134.427 225.234 136.101 225.389 137.71 225.466C139.705 225.621 141.701 225.699 143.696 225.931C144.469 226.008 144.726 225.621 144.726 224.77C144.726 222.139 142.537 218.966 140.156 218.579C136.744 218.038 133.333 217.651 129.921 217.264C127.668 217.032 125.415 216.954 123.098 216.877C122.776 216.877 122.454 216.8 122.132 216.722C121.875 216.645 121.682 216.413 121.618 216.026C121.553 215.639 121.746 215.252 122.132 215.175C122.583 215.097 122.969 215.02 123.42 215.02C132.496 215.097 141.443 216.568 150.326 218.193C151.485 218.425 151.935 218.812 151.807 219.431C151.549 220.514 150.777 220.282 150.069 220.205C148.266 219.972 146.464 219.663 144.662 219.431Z" fill="#010100"/>
</svg>
