<svg width="4" height="12" viewBox="0 0 4 12" fill="none" xmlns="http://www.w3.org/2000/svg">
<path d="M2.25 8.84375C1.84389 8.84375 1.45441 9.00508 1.16724 9.29224C0.880078 9.57941 0.71875 9.96889 0.71875 10.375C0.71875 10.7811 0.880078 11.1706 1.16724 11.4578C1.45441 11.7449 1.84389 11.9062 2.25 11.9062C2.65611 11.9063 3.04559 11.7449 3.33276 11.4578C3.61992 11.1706 3.78125 10.7811 3.78125 10.375C3.78125 9.96889 3.61992 9.57941 3.33276 9.29224C3.04559 9.00508 2.65611 8.84375 2.25 8.84375ZM2.25 4.46875C1.84389 4.46875 1.45441 4.63008 1.16724 4.91724C0.880078 5.20441 0.71875 5.59389 0.71875 6C0.71875 6.40611 0.880078 6.79559 1.16724 7.08276C1.45441 7.36992 1.84389 7.53125 2.25 7.53125C2.65611 7.53125 3.04559 7.36992 3.33276 7.08276C3.61992 6.79559 3.78125 6.40611 3.78125 6C3.78125 5.59389 3.61992 5.20441 3.33276 4.91724C3.04559 4.63008 2.65611 4.46875 2.25 4.46875ZM3.78125 1.625C3.78125 1.21889 3.61992 0.829408 3.33276 0.542243C3.04559 0.255078 2.65611 0.09375 2.25 0.09375C1.84389 0.09375 1.45441 0.255078 1.16724 0.542243C0.880078 0.829408 0.71875 1.21889 0.71875 1.625C0.71875 2.03111 0.880078 2.42059 1.16724 2.70776C1.45441 2.99492 1.84389 3.15625 2.25 3.15625C2.65611 3.15625 3.04559 2.99492 3.33276 2.70776C3.61992 2.42059 3.78125 2.03111 3.78125 1.625Z" fill="#525252"/>
</svg>
