<svg width="17" height="14" viewBox="0 0 17 14" fill="none" xmlns="http://www.w3.org/2000/svg">
<path d="M8.62505 0.875C6.41567 0.875 4.64653 1.88125 3.35864 3.07891C2.07896 4.26562 1.2231 5.6875 0.818408 6.66367C0.728174 6.87969 0.728174 7.12031 0.818408 7.33633C1.2231 8.3125 2.07896 9.73438 3.35864 10.9211C4.64653 12.1187 6.41567 13.125 8.62505 13.125C10.8344 13.125 12.6036 12.1187 13.8915 10.9211C15.1711 9.73164 16.027 8.3125 16.4344 7.33633C16.5247 7.12031 16.5247 6.87969 16.4344 6.66367C16.027 5.6875 15.1711 4.26562 13.8915 3.07891C12.6036 1.88125 10.8344 0.875 8.62505 0.875ZM4.68755 7C4.68755 5.95571 5.10239 4.95419 5.84082 4.21577C6.57924 3.47734 7.58076 3.0625 8.62505 3.0625C9.66934 3.0625 10.6709 3.47734 11.4093 4.21577C12.1477 4.95419 12.5625 5.95571 12.5625 7C12.5625 8.04429 12.1477 9.04581 11.4093 9.78423C10.6709 10.5227 9.66934 10.9375 8.62505 10.9375C7.58076 10.9375 6.57924 10.5227 5.84082 9.78423C5.10239 9.04581 4.68755 8.04429 4.68755 7ZM8.62505 5.25C8.62505 6.21523 7.84028 7 6.87505 7C6.68091 7 6.49497 6.96719 6.31997 6.90977C6.16958 6.86055 5.99458 6.95352 6.00005 7.11211C6.00825 7.30078 6.0356 7.48945 6.08755 7.67812C6.46216 9.07812 7.90317 9.90938 9.30317 9.53477C10.7032 9.16016 11.5344 7.71914 11.1598 6.31914C10.8563 5.18438 9.85278 4.42148 8.73716 4.375C8.57856 4.36953 8.4856 4.5418 8.53481 4.69492C8.59224 4.86992 8.62505 5.05586 8.62505 5.25Z" fill="#525252"/>
</svg>
